<?xml version="1.0" standalone="no"?>
<!DOCTYPE svg PUBLIC "-//W3C//DTD SVG 20010904//EN"
 "http://www.w3.org/TR/2001/REC-SVG-20010904/DTD/svg10.dtd">
<svg version="1.0" xmlns="http://www.w3.org/2000/svg"
 width="768.000000pt" height="768.000000pt" viewBox="0 0 768.000000 768.000000"
 preserveAspectRatio="xMidYMid meet">
<metadata>
Created by potrace 1.11, written by Peter Selinger 2001-2013
</metadata>
<g transform="translate(0.000000,768.000000) scale(0.100000,-0.100000)"
fill="#000000" stroke="none">
<path d="M3027 6404 c-308 -48 -521 -152 -632 -309 -49 -69 -83 -142 -91 -196
l-6 -37 -80 -4 c-79 -3 -104 -15 -93 -45 2 -6 -3 -17 -11 -23 -8 -7 -14 -17
-14 -22 0 -6 7 -5 15 2 13 11 15 8 15 -13 0 -14 -4 -29 -10 -32 -6 -4 -7 1 -3
11 4 11 2 15 -7 12 -12 -4 -34 -40 -63 -108 -15 -34 -16 -34 -16 -7 -1 36 -16
34 -30 -4 -14 -41 -14 -47 3 -51 17 -4 -59 -131 -164 -278 -64 -90 -221 -328
-263 -401 -75 -128 -138 -241 -161 -286 -17 -35 -31 -51 -40 -47 -11 4 -5 21
25 72 38 65 56 115 21 60 -9 -16 -22 -28 -29 -28 -7 0 -10 -7 -6 -17 5 -12 3
-14 -7 -8 -10 6 -12 3 -8 -13 5 -17 2 -22 -14 -22 -14 0 -18 -5 -14 -15 4 -11
-1 -15 -17 -15 -29 0 -53 -15 -38 -24 16 -10 14 -26 -4 -26 -8 0 -15 -7 -15
-15 0 -18 -11 -19 -29 -2 -11 10 -11 8 -2 -10 6 -13 9 -23 6 -23 -3 0 0 -10 7
-22 7 -13 11 -27 10 -31 -1 -5 5 -21 15 -38 20 -33 44 -39 36 -9 -4 14 0 20
11 20 18 0 40 42 56 107 6 23 21 55 34 70 13 15 34 48 46 73 13 25 33 59 46
76 13 17 25 40 27 52 2 12 15 34 29 49 14 16 43 62 65 103 22 42 107 177 189
300 82 124 159 242 171 263 13 20 35 42 50 48 15 5 33 19 40 29 9 13 26 20 48
20 38 0 49 12 51 53 2 38 6 40 53 32 45 -7 44 -5 56 -130 14 -139 61 -324 96
-375 9 -14 36 -59 60 -100 58 -103 174 -212 283 -267 145 -74 280 -98 484 -88
99 5 142 3 142 -4 0 -16 30 -13 36 3 3 8 16 13 30 12 31 -3 44 -16 16 -16 -21
0 -21 -1 -4 -18 15 -15 19 -16 28 -3 8 10 13 11 18 2 6 -9 11 -9 22 0 8 6 14
8 14 4 0 -4 7 -2 16 5 12 11 15 11 12 1 -2 -8 5 -15 15 -16 12 -2 17 1 13 10
-8 21 10 27 27 10 24 -23 33 -18 11 7 -19 21 -19 21 2 16 30 -8 53 8 25 17
-11 3 -21 11 -21 17 0 7 5 7 14 -1 10 -8 21 -9 42 -1 16 6 30 11 32 10 1 -1
16 1 32 5 27 6 35 15 31 38 -1 5 3 6 8 3 5 -3 23 1 40 10 18 9 34 14 37 12 10
-10 145 139 165 181 11 25 33 62 49 81 30 39 64 108 76 155 4 17 16 44 26 60
25 42 22 51 -7 19 -43 -46 -38 -20 10 52 41 63 60 74 34 21 -10 -22 -10 -22 7
-2 27 33 46 87 50 140 5 82 10 101 30 122 10 11 39 46 63 78 25 32 46 54 48
48 2 -5 15 -8 28 -5 25 4 30 -4 26 -37 -2 -7 2 -10 8 -6 6 3 12 1 12 -4 1 -6
2 -15 3 -21 0 -5 7 -15 14 -22 6 -6 12 -17 12 -24 0 -6 6 -14 14 -17 7 -3 22
-23 33 -44 30 -57 136 -193 151 -193 6 0 12 5 12 10 0 6 -7 10 -15 10 -8 0
-15 5 -15 10 0 6 5 10 10 10 7 0 7 8 -1 22 -17 32 53 -39 85 -86 14 -21 26
-44 26 -50 0 -6 -7 0 -16 12 -18 26 -34 29 -34 6 0 -22 28 -47 45 -40 8 3 14
2 14 -2 -1 -4 -1 -14 0 -22 1 -12 3 -13 10 -1 6 10 20 -2 52 -45 23 -33 50
-66 58 -74 9 -8 17 -22 19 -30 4 -16 51 -62 103 -100 57 -42 148 -140 170
-182 11 -22 23 -68 26 -102 3 -33 9 -66 15 -73 6 -7 5 -14 -2 -18 -5 -3 -10
-13 -10 -22 0 -13 3 -13 18 -2 9 7 14 9 10 5 -4 -5 -3 -15 2 -21 8 -9 3 -11
-17 -7 -16 2 -25 1 -20 -4 17 -18 49 -14 54 6 6 22 33 28 33 8 0 -10 2 -10 8
-1 11 17 78 27 87 13 6 -9 9 -9 15 1 7 10 12 10 23 1 7 -6 30 -18 49 -26 33
-14 36 -14 34 2 -1 21 17 20 99 -2 66 -18 206 -21 272 -6 116 27 148 47 237
147 78 88 87 102 116 190 34 103 55 271 44 358 -6 50 -6 51 44 97 49 45 50 47
41 84 -4 22 -9 42 -9 46 0 4 -26 14 -58 23 l-57 16 -57 117 c-66 136 -134 223
-233 300 -67 52 -202 123 -310 162 -112 42 -333 73 -478 68 -74 -2 -100 0
-106 10 -6 10 -74 19 -242 33 -275 22 -351 29 -767 75 -362 39 -325 37 -317
24 8 -14 -8 -12 -84 5 -188 45 -473 57 -654 29z m524 -61 c14 -6 40 -14 58
-16 41 -7 47 -13 31 -32 -7 -9 -10 -19 -6 -23 4 -4 16 4 26 17 16 23 20 23 49
11 34 -14 43 -35 11 -27 -15 4 -27 -3 -42 -24 -12 -16 -27 -29 -34 -29 -7 0
-18 -8 -24 -17 -11 -17 -11 -17 -6 -1 8 28 -12 31 -44 6 -31 -24 -40 -44 -16
-35 10 4 13 1 9 -9 -4 -10 -9 -12 -18 -4 -9 8 -14 6 -18 -4 -3 -8 -3 -17 1
-19 4 -2 0 -1 -8 1 -37 13 -76 8 -92 -11 -18 -20 -18 -20 -18 1 0 17 -6 22
-25 22 -28 0 -35 -19 -7 -21 16 -1 16 -2 -1 -6 -12 -3 -16 -12 -13 -29 4 -20
-1 -27 -20 -34 -37 -14 -40 -12 -16 9 28 24 29 51 1 51 -14 0 -19 -5 -16 -14
4 -9 -3 -16 -16 -20 -29 -7 -34 1 -11 19 10 8 14 15 8 15 -6 0 -14 -3 -18 -7
-3 -4 -14 -8 -22 -9 -29 -4 -45 -14 -40 -23 4 -5 -8 -13 -26 -16 -18 -4 -42
-12 -53 -19 -20 -11 -26 -13 -54 -15 -9 -1 -12 -9 -9 -26 4 -18 1 -25 -11 -26
-12 0 -11 -2 4 -8 19 -8 19 -8 0 -18 -20 -11 -27 -13 -45 -13 -18 0 -75 -62
-72 -77 2 -8 -1 -13 -6 -10 -4 3 -28 0 -53 -8 -26 -8 -36 -14 -24 -15 17 -2
17 -3 3 -7 -10 -2 -18 -11 -18 -19 0 -8 -5 -14 -11 -14 -6 0 -9 7 -5 15 4 11
-2 15 -22 14 -18 -1 -21 -3 -9 -6 22 -6 20 -54 -2 -61 -10 -3 -12 1 -8 17 6
23 -3 27 -21 9 -7 -7 -12 -8 -12 -3 0 5 -6 0 -14 -11 -10 -13 -11 -23 -4 -31
7 -9 3 -15 -17 -23 -33 -12 -45 -13 -45 -1 0 5 -10 7 -22 3 -24 -6 -49 -32
-42 -43 2 -4 -6 -5 -18 -2 -19 4 -20 3 -8 -6 13 -9 13 -11 -2 -11 -12 0 -15
-5 -11 -17 4 -10 2 -14 -5 -9 -7 4 -10 0 -7 -12 2 -11 -3 -19 -11 -19 -8 0
-14 7 -14 15 0 7 -6 12 -12 9 -7 -2 -12 -12 -10 -21 2 -9 -4 -19 -13 -22 -8
-3 -15 -12 -15 -19 0 -8 -8 -11 -22 -8 -17 3 -19 2 -10 -5 10 -7 5 -11 -20
-17 -18 -4 -27 -9 -20 -12 19 -7 14 -20 -10 -28 l-23 -7 24 -7 c23 -6 22 -8
-16 -23 l-41 -16 -14 47 c-8 29 -13 100 -13 196 0 129 4 161 23 224 53 169
170 282 377 366 32 13 37 18 25 26 -11 8 -8 9 14 4 29 -6 130 21 122 34 -3 4
19 7 47 8 29 1 77 6 107 12 73 13 477 8 511 -6z m564 -38 c127 -13 378 -38
559 -55 181 -16 331 -32 334 -34 2 -3 -18 -11 -45 -19 -100 -30 -180 -84 -210
-140 -8 -17 -22 -37 -29 -45 -8 -7 -14 -20 -14 -28 0 -8 -4 -14 -9 -14 -6 0
-4 15 4 33 11 26 11 37 3 45 -21 21 -28 13 -23 -23 5 -41 2 -42 -34 -15 -36
25 -92 37 -213 46 -115 8 -137 3 -176 -36 -17 -16 -33 -30 -35 -30 -3 0 -11
16 -17 35 -31 93 -155 212 -284 271 -52 24 -67 34 -48 34 4 0 111 -11 237 -25z
m-335 -60 c0 -8 -4 -15 -10 -15 -5 0 -7 7 -4 15 4 8 8 15 10 15 2 0 4 -7 4
-15z m1750 -95 c261 -58 444 -176 602 -390 22 -29 88 -177 88 -196 0 -18 -30
22 -35 47 -6 28 -25 51 -25 30 0 -6 -7 -11 -15 -11 -8 0 -14 -9 -13 -22 1 -38
-2 -49 -12 -43 -5 3 -3 -10 5 -29 19 -44 19 -46 -1 -46 -8 0 -12 -5 -9 -11 4
-6 13 -8 21 -5 9 3 14 -2 14 -14 0 -22 -10 -26 -27 -9 -9 9 -12 7 -10 -8 1
-14 7 -19 23 -17 25 2 40 -22 24 -41 -5 -6 -8 -14 -5 -17 5 -5 -350 -353 -390
-382 -14 -10 -24 -11 -33 -4 -9 8 -11 7 -6 -6 3 -9 2 -16 -3 -16 -5 0 -9 11
-9 25 0 18 5 25 21 25 16 1 14 4 -10 15 -16 7 -24 14 -17 14 7 1 10 6 7 11 -4
6 -1 9 7 8 14 -3 15 28 6 157 -12 158 -29 239 -64 310 -53 105 -59 114 -100
156 -21 21 -35 41 -32 45 4 3 -21 34 -55 69 -34 35 -71 76 -82 91 -11 16 -28
36 -37 46 -10 10 -15 18 -10 18 4 0 3 4 -3 8 -5 4 -23 34 -39 67 -16 33 -33
62 -36 65 -4 3 -10 25 -14 49 l-7 43 98 -7 c54 -3 136 -15 183 -25z m-293 -5
c10 -23 10 -25 -13 -21 -16 3 -24 0 -24 -10 0 -8 -5 -14 -11 -14 -5 0 -7 5 -4
10 5 9 -1 12 -21 9 -3 0 -11 7 -18 16 -14 19 -53 16 -48 -4 1 -7 -2 -9 -9 -5
-6 3 -14 1 -18 -5 -9 -14 -51 -23 -51 -11 0 5 5 12 10 15 6 3 10 1 10 -5 0 -6
5 -8 10 -5 6 4 8 10 5 15 -11 18 51 37 125 39 39 1 47 -3 57 -24z m-1607 5 c0
-5 -5 -10 -11 -10 -5 0 -7 5 -4 10 3 6 8 10 11 10 2 0 4 -4 4 -10z m-33 -35
c0 -8 -4 -12 -9 -9 -4 3 -8 9 -8 15 0 5 4 9 8 9 5 0 9 -7 9 -15z m1543 11 c0
-3 -4 -8 -10 -11 -5 -3 -10 -1 -10 4 0 6 5 11 10 11 6 0 10 -2 10 -4z m20 -81
c-7 -9 -15 -13 -19 -10 -3 3 1 10 9 15 21 14 24 12 10 -5z m111 -38 c-13 -13
-30 0 -28 23 1 18 2 18 19 3 12 -10 15 -20 9 -26z m-2111 13 c0 -5 -7 -10 -15
-10 -8 0 -15 5 -15 10 0 6 7 10 15 10 8 0 15 -4 15 -10z m1313 -20 c98 -11
142 -29 150 -60 3 -11 1 -20 -4 -20 -5 0 -9 4 -9 8 0 4 -9 8 -20 8 -11 0 -20
-4 -20 -8 0 -4 -11 -3 -24 2 -13 5 -27 6 -31 2 -3 -3 -10 0 -16 8 -7 12 -11
13 -18 2 -5 -8 -21 -12 -37 -10 -18 2 -29 -2 -30 -9 -1 -7 -2 -17 -3 -21 0 -5
-14 -18 -30 -30 -28 -21 -29 -21 -34 -1 -3 11 2 27 11 36 16 16 16 16 -1 10
-10 -4 -29 -4 -43 -1 -19 5 -24 13 -24 40 0 55 26 62 183 44z m-1363 -4 c0 -3
-4 -8 -10 -11 -5 -3 -10 -1 -10 4 0 6 5 11 10 11 6 0 10 -2 10 -4z m1316 -130
c19 -19 18 -46 -2 -46 -8 0 -12 -5 -9 -10 4 -6 -5 -5 -19 2 -27 12 -33 23 -16
33 6 3 10 0 10 -7 0 -10 2 -10 9 1 5 8 7 20 4 28 -7 17 5 17 23 -1z m94 -81
c0 -2 -9 -9 -20 -15 -12 -6 -20 -7 -20 -1 0 5 8 12 18 14 9 3 18 5 20 6 1 0 2
-1 2 -4z m-1900 -153 c0 -5 -7 -9 -15 -9 -8 0 -15 4 -15 9 0 4 7 8 15 8 8 0
15 -4 15 -8z m3527 -84 c2 -17 0 -19 -7 -8 -5 8 -6 18 -4 22 8 12 10 10 11
-14z m-1457 -33 c0 -5 -50 4 -60 10 -11 7 -10 10 5 15 11 4 26 0 37 -9 10 -8
18 -16 18 -16z m-625 -181 c-8 -9 -13 -20 -10 -25 4 -5 1 -9 -6 -9 -7 0 -10
-3 -6 -6 11 -11 -72 -126 -145 -201 -40 -41 -107 -98 -148 -127 -84 -59 -209
-131 -216 -124 -2 3 8 11 24 19 57 29 198 131 263 189 64 57 209 237 232 287
5 12 14 20 19 17 4 -3 1 -12 -7 -20z m2188 -194 c-3 -41 -11 -94 -18 -117 -9
-31 -10 -43 -1 -46 8 -3 8 -8 -1 -18 -7 -8 -10 -25 -6 -37 3 -15 1 -22 -8 -22
-10 0 -11 -2 -2 -8 8 -5 4 -17 -15 -41 -63 -77 -95 -111 -108 -111 -7 0 -36
-14 -65 -30 -94 -56 -231 -78 -261 -42 -16 19 -35 78 -43 135 -5 35 -2 41 37
75 24 20 72 64 108 97 36 34 99 88 140 120 41 33 98 81 125 107 28 26 64 54
80 62 30 16 30 16 37 -17 4 -17 5 -66 1 -107z m-2155 111 c-12 -19 -28 -19
-28 0 0 6 4 8 9 4 5 -3 12 -1 16 5 3 5 8 10 11 10 2 0 -1 -9 -8 -19z m-578
-415 c0 -2 -7 -7 -16 -10 -8 -3 -12 -2 -9 4 6 10 25 14 25 6z m-60 -26 c-8 -5
-19 -10 -25 -10 -5 0 -3 5 5 10 8 5 20 10 25 10 6 0 3 -5 -5 -10z m287 -16
c-3 -3 -12 -4 -19 -1 -8 3 -5 6 6 6 11 1 17 -2 13 -5z m1768 -124 c3 -5 1 -10
-4 -10 -6 0 -11 5 -11 10 0 6 2 10 4 10 3 0 8 -4 11 -10z m-4182 -167 c-7 -58
-20 -78 -39 -62 -11 9 -11 13 1 25 8 8 17 30 21 49 10 53 25 42 17 -12z"/>
<path d="M3512 6175 c-6 -14 -8 -25 -3 -25 8 0 23 41 17 47 -1 2 -8 -8 -14
-22z"/>
<path d="M6138 5663 c7 -3 16 -2 19 1 4 3 -2 6 -13 5 -11 0 -14 -3 -6 -6z"/>
<path d="M6116 5634 c-9 -23 -7 -34 5 -34 5 0 7 5 3 12 -4 6 1 17 11 25 16 11
16 13 3 13 -9 0 -19 -7 -22 -16z"/>
<path d="M6140 5400 c-13 -8 -12 -10 3 -10 9 0 17 5 17 10 0 12 -1 12 -20 0z"/>
<path d="M6130 4935 c-7 -14 -16 -22 -20 -20 -5 3 -11 -2 -14 -11 -3 -8 -10
-12 -16 -9 -5 3 -10 2 -10 -3 0 -9 33 -21 53 -21 5 0 14 -7 21 -16 11 -15 13
-14 23 8 9 20 8 27 -9 41 -19 16 -19 18 -3 30 15 11 16 14 3 19 -10 3 -20 -3
-28 -18z m37 -51 c-3 -3 -12 -4 -19 -1 -8 3 -5 6 6 6 11 1 17 -2 13 -5z"/>
<path d="M2070 5765 c-9 -11 -9 -15 -1 -15 7 0 3 -10 -9 -22 -18 -20 -26 -38
-16 -38 12 0 53 68 47 79 -6 9 -11 8 -21 -4z"/>
<path d="M1124 5668 c-49 -55 -172 -294 -174 -336 0 -1 -6 -15 -14 -31 -23
-44 -76 -210 -82 -255 -3 -23 -9 -57 -14 -76 -5 -19 -12 -75 -15 -125 -3 -49
-10 -110 -15 -135 -5 -25 -12 -81 -15 -125 -3 -44 -8 -107 -11 -141 -3 -33 0
-130 8 -215 19 -227 17 -334 -9 -384 -21 -40 -78 -99 -137 -141 -25 -18 -30
-29 -34 -77 -3 -40 1 -72 14 -109 17 -48 19 -87 19 -413 l0 -360 28 -65 c27
-62 77 -120 104 -120 13 0 60 -25 115 -61 37 -24 88 -93 113 -154 26 -64 57
-157 62 -190 3 -16 9 -38 14 -47 5 -9 12 -34 15 -55 3 -21 12 -50 20 -65 8
-15 14 -31 14 -35 1 -5 6 -26 12 -48 6 -22 13 -47 14 -55 2 -9 15 -49 29 -90
14 -41 28 -82 30 -90 1 -8 18 -60 36 -115 36 -112 77 -195 118 -240 15 -16 47
-56 72 -88 24 -33 61 -80 81 -107 20 -26 74 -81 119 -121 45 -41 117 -106 160
-146 73 -67 252 -192 359 -251 26 -15 253 -101 280 -107 8 -2 26 -8 40 -13 14
-5 28 -10 33 -11 4 0 20 -7 36 -15 15 -8 39 -17 52 -20 13 -3 42 -10 64 -16
22 -6 49 -13 60 -15 99 -25 1216 -37 1296 -15 19 6 49 12 65 14 16 3 49 10 74
16 25 7 59 13 75 15 17 2 50 9 75 15 25 7 53 12 63 12 10 -1 38 8 63 18 24 11
48 20 52 21 6 2 58 31 147 84 19 11 64 37 101 59 37 21 85 51 108 66 22 15 79
38 126 51 71 20 118 45 290 152 221 139 279 176 295 192 21 20 141 164 160
192 22 32 21 27 37 110 14 66 31 97 27 48 -1 -16 -1 -41 -1 -54 l2 -25 30 29
c20 19 30 39 31 59 0 22 2 26 7 14 6 -16 10 -14 35 11 28 30 54 92 109 256 16
50 34 99 38 110 29 66 43 135 33 158 -7 14 -8 30 -3 38 7 10 11 8 18 -10 7
-21 10 -17 25 35 17 58 17 58 -9 103 -23 42 -6 31 23 -15 11 -18 12 -17 13 6
2 26 3 37 14 87 5 22 2 34 -14 48 -28 25 -26 43 5 37 15 -2 25 0 25 7 0 6 -6
11 -12 11 -7 0 -5 5 5 11 13 8 18 20 16 43 -2 17 1 38 5 45 6 10 5 12 -2 7
-17 -10 -15 12 2 29 7 8 16 42 20 77 4 35 12 85 18 111 9 37 9 53 0 67 -10 16
-9 18 5 13 14 -6 15 4 9 93 -12 164 -34 343 -46 374 -1 3 -2 9 -1 14 1 5 -7 6
-19 3 -11 -3 -18 -2 -16 2 3 4 -4 12 -14 19 -15 9 -21 9 -26 0 -4 -7 -2 -14 4
-16 7 -2 12 -15 12 -28 0 -13 6 -24 13 -24 8 0 14 -7 14 -15 0 -8 -4 -12 -9
-9 -4 3 -8 -2 -8 -10 0 -10 -6 -13 -17 -9 -10 4 -12 8 -6 10 13 5 5 34 -11 45
-6 4 -11 11 -12 15 0 4 -8 24 -16 43 -15 33 -16 33 -17 9 -1 -14 3 -29 9 -35
6 -6 3 -10 -10 -11 -11 -1 -22 6 -25 18 -4 10 -11 19 -16 19 -5 0 -8 4 -6 8 1
4 -13 25 -32 47 -18 22 -31 32 -28 23 5 -13 0 -16 -25 -13 -27 4 -29 3 -16
-13 12 -15 11 -16 -4 -3 -10 7 -18 20 -18 27 0 12 -4 12 -23 -1 -13 -8 -27
-12 -30 -8 -4 3 -7 3 -7 -2 0 -4 8 -13 17 -20 9 -7 18 -20 19 -30 2 -13 -6 -9
-27 14 -16 18 -29 39 -29 47 0 9 -5 12 -12 8 -7 -4 -10 -4 -6 0 3 4 -1 16 -10
26 -10 10 -22 25 -28 32 -5 7 -28 27 -50 45 l-39 32 38 -4 c43 -6 46 -1 15 27
-22 19 -22 19 -2 15 13 -3 21 1 21 9 0 7 -4 11 -8 8 -5 -3 -22 2 -40 11 -31
16 -56 12 -29 -5 8 -5 11 -12 8 -15 -9 -9 -86 47 -121 88 -16 17 -55 60 -88
95 -32 34 -59 68 -59 76 0 20 -27 40 -32 24 -3 -8 -9 -4 -17 11 -12 22 -12 23
5 17 17 -6 17 -6 -1 14 -13 14 -21 17 -26 9 -5 -8 -8 -8 -10 0 -2 6 -24 14
-49 17 -43 6 -109 33 -82 34 7 0 22 -5 33 -11 36 -19 40 -4 8 34 -17 21 -37
36 -44 33 -8 -3 -16 2 -19 10 -3 9 -10 13 -15 10 -11 -7 -33 18 -24 27 8 8
-16 37 -31 37 -6 0 -2 -7 8 -15 11 -8 17 -17 14 -20 -9 -9 -37 30 -30 42 6 9
16 5 37 -12 24 -19 27 -26 16 -34 -8 -5 -9 -11 -3 -15 6 -3 12 0 15 6 3 9 18
1 43 -22 28 -26 34 -29 21 -10 -10 14 -24 39 -32 57 -8 18 -23 37 -32 42 -10
6 -13 11 -6 11 6 0 24 -13 39 -29 31 -33 68 -33 38 0 -10 11 -15 22 -12 24 3
3 17 -8 31 -24 13 -16 28 -27 31 -23 4 3 4 -1 1 -10 -4 -9 -2 -19 4 -23 6 -3
11 -14 11 -24 0 -10 8 -25 17 -32 15 -12 16 -12 11 8 -5 18 -2 22 14 19 20 -2
57 -42 58 -60 0 -5 8 -15 18 -22 16 -12 16 -13 0 -19 -16 -6 -16 -9 -2 -36 8
-16 20 -29 26 -29 6 0 4 8 -5 18 -19 21 -23 46 -7 40 6 -2 27 -26 48 -53 21
-28 62 -67 92 -87 30 -20 55 -41 55 -47 0 -14 32 -51 45 -51 18 0 10 16 -15
30 -26 14 -25 33 2 23 12 -5 14 -3 8 8 -5 8 -5 11 1 6 5 -5 9 -13 9 -19 0 -6
10 -14 23 -19 14 -5 22 -5 22 3 0 7 5 6 15 -2 11 -9 15 -9 15 -1 0 6 -7 14
-15 17 -8 4 -15 12 -15 20 0 12 -19 19 -42 15 -4 0 -5 5 -3 12 7 17 -11 41
-24 33 -6 -4 -9 -12 -6 -17 3 -5 -2 -6 -11 -2 -12 4 -15 3 -10 -5 4 -7 3 -12
-1 -12 -5 0 -14 9 -21 20 -7 12 -18 20 -25 18 -14 -3 -81 31 -74 38 2 3 24 -2
48 -10 23 -8 47 -12 52 -9 6 3 7 1 4 -4 -4 -6 2 -13 13 -16 13 -3 20 0 20 10
0 8 -5 11 -12 7 -7 -5 -9 -2 -5 8 4 12 0 15 -16 11 -18 -5 -20 -3 -10 7 10 11
9 16 -5 27 -16 14 -16 14 1 9 11 -3 16 -2 12 4 -3 6 -13 10 -21 10 -10 0 -13
8 -10 25 3 14 0 25 -6 25 -5 0 -8 -7 -4 -15 6 -17 -29 -22 -39 -5 -3 6 2 10
11 10 16 0 16 1 -2 15 -18 13 -18 14 6 8 22 -5 23 -4 10 8 -40 36 -54 60 -41
68 10 6 9 11 -3 24 -9 9 -12 18 -7 22 15 9 1 35 -18 35 -25 0 -33 11 -20 27 9
10 7 13 -7 13 -11 0 -28 8 -39 17 -15 12 -16 14 -3 10 12 -4 15 -2 12 8 -3 8
-24 21 -47 29 -23 8 -34 15 -25 15 11 1 15 6 11 16 -3 9 -15 15 -26 13 -11 -2
-22 3 -24 10 -3 6 0 12 6 12 6 0 11 7 11 16 0 14 -2 15 -17 3 -9 -8 -14 -9
-10 -3 4 7 0 18 -9 25 -14 12 -20 9 -45 -21 l-29 -34 -1 34 c-1 19 -1 50 -1
69 1 34 -38 124 -58 136 -6 4 -28 -6 -48 -22 -20 -15 -42 -27 -49 -25 -6 1
-14 -2 -18 -8 -4 -6 1 -7 12 -3 11 4 4 -8 -17 -30 -32 -34 -59 -50 -45 -27 3
6 1 10 -5 10 -6 0 -8 5 -5 10 4 6 11 8 16 5 5 -4 9 3 9 14 0 12 5 21 10 21 6
0 10 7 10 16 0 10 -5 14 -15 10 -9 -3 -20 3 -27 14 -15 23 -38 27 -38 6 0 -8
-6 -16 -14 -19 -10 -4 -13 1 -11 18 1 14 -1 23 -4 21 -10 -5 -40 32 -33 40 4
4 1 4 -5 0 -7 -4 -13 -16 -13 -26 0 -21 -28 -53 -40 -45 -10 6 -23 -42 -14
-56 3 -6 12 -8 20 -5 22 9 17 -2 -21 -41 -19 -20 -35 -40 -35 -45 0 -5 -6 -8
-12 -6 -18 3 -58 -24 -58 -40 0 -7 -4 -11 -10 -7 -5 3 -8 19 -7 34 1 16 5 27
9 25 4 -3 11 4 17 14 11 21 11 62 0 62 -9 0 21 63 34 71 5 4 -6 12 -25 19 -42
16 -45 17 -64 19 -8 0 -12 5 -9 11 10 16 -117 3 -186 -20 -67 -22 -74 -25
-209 -89 -47 -23 -89 -41 -93 -41 -16 0 -118 -96 -110 -103 2 -3 -5 -8 -16
-12 -11 -3 -23 -14 -26 -25 -5 -15 -11 -17 -35 -10 -18 5 -30 5 -30 -1 0 -5
-11 -9 -24 -9 -25 0 -96 69 -96 94 0 7 -6 19 -14 25 -11 9 -16 6 -24 -19 -6
-16 -17 -31 -24 -31 -28 -3 -53 4 -60 15 -6 8 -11 7 -18 -4 -9 -13 -10 -13
-10 1 0 8 9 25 21 37 11 12 17 27 14 32 -4 6 -15 0 -26 -14 -13 -17 -25 -22
-41 -18 -17 4 -20 2 -15 -11 4 -11 -2 -22 -16 -32 -12 -8 -18 -15 -13 -15 5 0
3 -6 -3 -14 -6 -7 -9 -20 -6 -27 3 -8 -8 -22 -25 -34 -31 -21 -35 -30 -31 -77
2 -19 -3 -28 -12 -28 -8 0 -18 -7 -21 -16 -9 -22 -8 -24 10 -24 13 0 14 -3 5
-14 -18 -22 15 -51 38 -34 26 20 27 22 9 15 -27 -9 -22 3 13 34 17 15 29 31
26 36 -5 9 18 34 26 27 2 -2 10 2 16 10 7 8 20 12 28 9 12 -5 15 -2 10 10 -3
9 -2 19 3 22 5 3 7 12 3 21 -5 13 -2 13 22 2 l28 -12 -29 -14 -29 -13 28 6
c17 3 37 -1 54 -12 15 -10 24 -13 20 -6 -16 26 54 17 74 -10 3 -5 21 -12 40
-17 73 -19 155 -52 166 -67 10 -13 15 -14 28 -3 12 10 15 10 15 -3 0 -20 103
-113 108 -98 3 9 8 9 18 0 11 -9 14 -7 14 10 0 22 -7 27 -45 35 -49 10 -67 19
-54 27 10 6 10 11 -1 23 -11 14 -10 16 3 11 8 -4 18 -16 21 -28 4 -15 8 -18
14 -10 6 10 14 9 36 -2 39 -20 46 -18 17 4 l-24 19 22 7 c21 6 22 8 5 26 -20
22 -12 38 10 20 12 -10 20 -9 40 4 29 19 31 26 14 43 -7 7 -9 13 -5 13 18 3
23 6 45 17 12 7 27 10 32 7 5 -3 13 2 18 11 7 13 11 9 16 -20 4 -20 5 -45 2
-54 -5 -13 0 -18 20 -20 25 -2 26 0 21 33 -5 31 -4 33 9 21 8 -8 14 -24 14
-35 0 -28 16 -27 25 2 8 21 8 21 12 -5 2 -15 12 -29 21 -31 13 -4 12 -5 -4 -6
-39 -2 -47 -66 -12 -97 12 -10 18 -13 14 -6 -4 6 -2 12 4 12 7 0 9 12 4 36 -4
24 -3 35 3 31 6 -4 13 -30 15 -58 4 -42 12 -57 42 -87 l36 -37 0 45 c0 29 -10
64 -28 100 -20 39 -26 62 -21 80 4 15 7 18 8 8 1 -9 12 -28 25 -41 14 -14 28
-42 32 -63 3 -22 10 -46 14 -54 4 -8 4 -45 1 -81 -5 -51 -3 -65 6 -62 7 3 13
15 13 27 1 16 4 13 15 -13 l15 -34 78 7 c42 3 95 9 117 12 50 7 97 -9 89 -31
-5 -12 -45 -36 -84 -50 -3 -1 -18 -7 -33 -13 -16 -7 -35 -12 -43 -12 -8 0 -14
-4 -14 -10 0 -5 -5 -10 -11 -10 -5 0 -7 4 -4 10 3 6 -1 7 -9 4 -9 -3 -16 -1
-16 5 0 6 -5 11 -11 11 -6 0 -22 9 -36 20 -19 15 -29 17 -39 10 -7 -6 -15 -7
-18 -2 -3 5 -18 8 -35 7 -21 -1 -28 2 -24 12 3 7 0 13 -6 13 -16 0 -52 -43
-49 -59 3 -15 -40 -66 -49 -57 -2 2 0 13 6 24 6 12 11 30 11 42 0 22 0 22 -21
-1 l-20 -24 7 25 7 25 -22 -20 c-19 -16 -24 -17 -31 -5 -8 12 -10 10 -10 -7 0
-23 -20 -33 -20 -10 0 8 -3 9 -8 1 -10 -15 -62 -27 -62 -14 0 5 -6 10 -14 10
-17 0 -28 24 -20 45 3 8 -1 22 -10 31 -15 15 -16 13 -10 -28 4 -23 10 -45 14
-48 13 -9 22 -50 11 -50 -6 0 -11 7 -11 15 0 8 -4 15 -8 15 -11 0 -32 -46 -32
-70 0 -11 -4 -20 -10 -20 -5 0 -10 5 -10 10 0 6 -7 10 -15 10 -9 0 -12 6 -9
15 4 9 0 15 -10 15 -9 0 -16 7 -16 15 0 8 -4 15 -8 15 -10 0 -10 -46 1 -56 12
-13 8 -24 -8 -18 -12 5 -15 -3 -15 -36 0 -28 -4 -39 -11 -34 -8 4 -10 30 -6
73 4 54 3 61 -7 41 -14 -32 -51 -75 -40 -47 7 19 -22 60 -36 52 -5 -3 -11 -23
-15 -45 -4 -27 -14 -44 -28 -52 -12 -6 -25 -16 -29 -21 -4 -7 -13 -6 -24 4
-11 9 -15 9 -10 2 4 -7 3 -13 -3 -13 -5 0 -12 -8 -14 -17 -4 -17 -5 -17 -6 0
-1 24 -18 21 -24 -4 -5 -20 -7 -20 -22 -5 -22 21 -24 20 -21 -9 2 -13 0 -22
-5 -19 -4 2 -13 -5 -19 -16 -6 -11 -15 -18 -21 -15 -5 4 -9 3 -8 -2 4 -23 -3
-40 -16 -40 -13 0 -19 17 -18 54 0 8 -7 9 -25 2 -22 -8 -23 -8 -12 6 16 19 9
28 -14 19 -14 -5 -16 -14 -12 -39 5 -26 3 -33 -12 -37 -15 -4 -17 0 -14 25 4
22 2 28 -8 22 -10 -6 -12 -1 -8 17 3 16 0 25 -9 25 -8 0 -16 -16 -19 -39 -4
-21 -10 -38 -15 -38 -5 0 -9 -11 -9 -24 0 -14 -5 -28 -11 -32 -9 -5 -10 4 -5
31 6 29 5 35 -6 29 -7 -5 -17 -9 -23 -10 -5 0 -16 -2 -22 -2 -7 -1 -13 -7 -13
-13 0 -6 9 -8 20 -4 24 7 26 -7 5 -25 -8 -7 -15 -19 -15 -28 0 -8 -6 -23 -14
-31 -8 -9 -24 -50 -35 -91 -15 -56 -20 -67 -22 -45 -1 17 -1 39 0 50 2 20 2
20 -13 0 -9 -11 -16 -27 -16 -35 0 -12 -2 -13 -9 -1 -11 17 -23 -1 -15 -23 4
-10 0 -18 -10 -22 -9 -3 -16 -13 -16 -21 0 -16 -48 -83 -69 -97 -11 -7 -11
-10 0 -18 11 -8 10 -8 -4 -4 -20 6 -61 -16 -50 -28 4 -3 -3 -13 -15 -22 -22
-15 -30 -44 -12 -44 5 0 6 8 3 17 -5 12 -2 15 9 11 9 -4 21 -1 27 5 8 8 11 8
11 -2 0 -7 5 -9 10 -6 6 4 7 11 4 17 -4 6 -1 9 7 6 18 -7 51 10 44 22 -3 5 -1
11 5 15 5 3 10 0 10 -7 1 -7 12 1 26 17 18 22 22 24 17 9 -14 -36 -73 -95
-162 -161 -2 -1 2 -9 9 -17 11 -14 14 -14 27 0 25 25 27 7 3 -27 -15 -20 -24
-50 -26 -83 -3 -45 -2 -47 5 -18 10 40 31 64 38 44 6 -15 23 -6 23 13 0 8 -7
11 -20 8 -21 -5 -28 11 -10 22 6 4 8 10 5 15 -3 5 0 12 6 15 5 4 8 14 5 22 -3
8 4 27 15 41 l22 27 -8 -35 c-4 -19 -9 -45 -12 -57 -6 -27 20 -26 43 3 15 18
15 18 5 -3 -16 -33 -13 -38 9 -18 11 10 20 13 20 8 0 -12 -30 -27 -45 -24 -5
1 -1 -7 10 -19 l19 -21 -27 6 c-15 4 -28 3 -28 -1 -1 -5 -2 -28 -3 -51 -3 -47
-13 -65 -25 -44 -6 10 -10 9 -15 -4 -8 -22 -8 -25 5 -25 21 0 37 -27 32 -53
-3 -16 -1 -27 6 -27 6 0 11 9 11 19 0 11 3 26 6 35 4 11 1 16 -10 16 -24 0
-19 17 14 47 17 14 30 31 30 37 0 6 -7 3 -14 -6 -19 -26 -40 -24 -24 2 7 11
17 20 23 20 5 0 21 16 35 36 13 20 26 32 28 26 4 -13 -42 -96 -70 -128 -17
-20 -17 -21 3 -42 25 -28 35 -22 43 23 9 44 25 55 24 15 -1 -17 -5 -33 -10
-36 -14 -9 -9 -24 7 -18 8 4 22 1 29 -5 12 -10 18 -4 35 35 25 55 40 54 17 -1
-19 -44 -19 -45 -5 -45 23 0 69 59 69 88 0 35 -9 45 -27 31 -19 -16 -17 10 3
39 10 15 11 22 3 22 -7 0 -9 10 -7 25 4 18 0 26 -14 31 -20 6 -46 -18 -73 -68
-20 -36 -28 -36 -14 0 25 63 65 132 77 132 6 0 12 3 12 8 0 12 58 72 70 72 6
0 8 -5 5 -10 -8 -13 -2 -13 27 3 14 7 22 19 20 30 -3 13 3 17 26 17 21 0 31 6
35 20 3 11 13 23 24 27 10 4 26 17 36 30 10 13 25 23 32 23 8 0 26 5 42 12 15
6 32 10 37 9 5 -1 17 6 27 15 15 13 22 14 33 5 12 -10 15 -8 18 11 2 15 10 23
23 24 41 2 75 17 75 32 0 8 3 12 7 9 3 -4 12 2 19 12 15 20 61 34 66 19 2 -6
21 -2 41 8 29 14 40 15 46 6 5 -9 18 -5 48 17 23 16 43 27 46 24 3 -3 34 2 69
10 64 16 75 15 202 -12 26 -6 52 -8 57 -5 5 3 96 7 204 10 107 2 205 8 219 14
16 6 44 4 82 -5 47 -11 66 -21 91 -51 18 -20 30 -41 27 -45 -3 -5 5 -13 18
-18 13 -6 17 -10 11 -10 -7 -1 -13 -8 -13 -17 0 -9 5 -12 11 -8 8 5 10 -3 7
-25 -3 -18 0 -31 6 -32 6 0 21 -2 34 -5 16 -3 22 1 22 13 0 14 2 14 19 -3 10
-10 16 -22 14 -27 -2 -4 3 -10 11 -13 9 -3 16 -11 16 -18 0 -12 86 -106 97
-106 3 0 12 8 19 18 7 9 14 12 14 5 0 -6 -4 -15 -10 -18 -5 -3 -10 -15 -10
-26 0 -11 5 -17 10 -14 6 4 8 11 5 16 -4 5 -4 9 -1 9 11 0 56 -80 56 -100 0
-15 -7 -20 -24 -20 -14 0 -28 -5 -31 -10 -3 -5 2 -10 12 -10 10 0 25 -5 33
-11 13 -9 13 -10 0 -8 -25 2 -44 -1 -60 -11 -12 -7 -12 -12 4 -29 11 -12 25
-21 33 -21 7 0 13 -4 13 -10 0 -5 12 -10 28 -11 l27 0 -24 -10 c-18 -7 -32 -5
-58 11 -39 23 -43 24 -43 10 0 -5 7 -10 16 -10 8 0 13 -4 10 -9 -3 -5 9 -12
27 -16 31 -7 32 -7 7 -15 -24 -7 -24 -7 15 -25 22 -11 44 -21 49 -23 5 -3 -1
12 -14 33 l-23 38 24 -16 c22 -15 77 -74 149 -162 24 -29 24 -29 -15 4 -22 19
-53 52 -68 73 -28 37 -38 46 -36 31 3 -21 -2 -34 -11 -28 -6 4 -25 8 -43 11
-18 2 -45 6 -61 10 -21 4 -27 3 -21 -6 5 -9 1 -10 -16 -6 l-24 7 25 -21 c25
-22 36 -50 19 -50 -6 0 0 -10 12 -23 15 -15 23 -18 26 -10 4 10 11 9 34 -2 16
-9 29 -17 29 -18 0 -1 -19 -2 -41 0 -28 1 -51 10 -68 26 -28 25 -56 25 -65 0
-9 -21 24 -55 46 -50 10 3 18 1 18 -4 0 -4 19 -14 43 -20 23 -6 37 -14 30 -16
-6 -2 -28 0 -47 6 -22 5 -36 6 -36 0 0 -5 4 -9 8 -9 5 0 14 -10 20 -22 7 -13
19 -34 29 -48 l17 -25 -22 19 c-12 11 -22 15 -22 11 0 -5 -12 2 -26 16 l-26
24 13 -30 c7 -16 24 -42 38 -57 13 -15 22 -31 18 -34 -3 -3 -11 3 -18 14 -7
11 -18 18 -24 16 -7 -3 -17 13 -24 36 -6 22 -17 40 -22 40 -6 0 -8 -7 -5 -16
3 -9 6 -25 6 -37 0 -14 11 -28 28 -38 17 -9 28 -24 28 -37 0 -15 -4 -18 -13
-11 -6 6 -9 17 -6 25 3 8 -1 14 -11 14 -9 0 -16 -5 -16 -12 0 -6 -12 -1 -27
13 -14 13 -23 18 -18 10 6 -11 4 -13 -8 -8 -10 3 -17 5 -17 3 0 -6 52 -38 65
-40 21 -3 85 -78 120 -141 19 -33 52 -78 74 -99 l40 -39 -14 60 c-17 71 -35
114 -45 108 -9 -5 -23 25 -16 32 11 11 30 -14 57 -73 40 -87 58 -144 47 -144
-5 0 -4 -10 3 -21 8 -15 8 -19 0 -15 -6 4 -11 2 -11 -4 0 -6 -4 -8 -10 -5 -5
3 -10 14 -10 24 0 20 -68 103 -79 97 -4 -3 -18 16 -32 41 -13 26 -31 49 -39
51 -13 5 -13 3 -1 -11 7 -10 24 -36 36 -60 13 -23 27 -41 31 -40 15 2 92 -171
92 -207 0 -19 5 -54 10 -77 9 -39 1 -61 -11 -30 -3 6 -6 2 -6 -10 -1 -12 -5
-24 -10 -28 -6 -3 -7 17 -4 49 7 66 -2 106 -23 106 -12 0 -14 3 -6 13 13 16 4
59 -14 70 -7 4 -11 14 -8 22 7 16 -24 71 -55 99 -20 18 -20 18 -15 -5 15 -65
20 -140 10 -146 -6 -4 8 -15 29 -26 22 -10 30 -16 17 -13 -15 3 -25 -1 -29
-10 -3 -8 -11 -14 -19 -14 -8 0 -11 -6 -7 -16 5 -13 7 -13 14 -2 6 8 9 2 9
-21 0 -33 0 -33 -17 -12 -18 21 -18 20 -21 -59 -1 -56 1 -79 9 -74 6 3 4 -8
-5 -24 -10 -20 -12 -33 -6 -37 6 -3 12 0 14 7 13 41 15 36 10 -27 -6 -69 -14
-101 -14 -54 0 48 -17 54 -24 8 -12 -76 -17 -99 -25 -103 -4 -3 -4 16 0 42 4
26 8 61 8 77 0 29 -1 28 -14 -10 -8 -22 -12 -49 -9 -60 3 -14 -4 -29 -20 -45
-29 -26 -37 -10 -12 25 15 22 31 85 21 85 -3 0 -14 -17 -23 -37 -10 -21 -30
-57 -46 -80 -16 -23 -26 -49 -23 -57 3 -8 3 -16 -1 -18 -4 -2 -17 -25 -29 -53
-12 -28 -28 -49 -35 -48 -7 2 -23 -13 -36 -32 -12 -19 -27 -35 -33 -35 -6 0 5
19 23 43 52 65 92 137 68 122 -6 -3 -10 -11 -10 -17 0 -14 -81 -87 -97 -88 -7
0 -13 -4 -13 -10 0 -5 -7 -7 -15 -3 -9 3 -15 2 -14 -3 6 -33 -3 -64 -17 -64
-14 0 -15 2 -3 17 13 15 11 16 -13 9 -32 -7 -37 4 -9 21 15 10 21 10 24 0 2
-7 4 0 4 15 0 25 -2 27 -26 22 -14 -4 -30 -11 -35 -15 -6 -5 -15 -9 -20 -9 -6
0 -4 5 4 10 11 7 12 10 2 10 -21 0 8 26 38 34 l25 7 -25 -15 c-14 -9 -20 -15
-14 -16 19 0 44 25 49 48 6 31 -5 54 -21 48 -17 -7 -17 -6 1 38 8 20 20 36 25
36 13 0 13 -23 -1 -37 -8 -8 -7 -19 3 -40 18 -37 31 -36 43 5 6 20 14 31 22
28 7 -3 13 1 13 9 0 8 9 19 20 25 23 12 26 1 9 -32 -9 -16 -8 -19 2 -12 33 20
49 40 49 61 0 26 -8 29 -24 9 -9 -12 -19 -12 -60 -1 -41 11 -55 10 -82 -1 -21
-9 -35 -10 -39 -4 -3 6 5 10 19 10 15 0 26 6 26 13 0 8 13 13 35 14 19 1 35
-3 35 -8 0 -5 5 -9 10 -9 6 0 8 11 4 26 -5 19 -4 25 5 20 6 -4 11 -16 11 -27
0 -20 15 -26 25 -9 3 5 14 49 25 98 11 49 22 97 26 106 5 12 2 15 -10 10 -12
-5 -15 -2 -10 12 3 12 -4 8 -20 -11 -14 -16 -26 -35 -26 -41 0 -6 -6 -16 -13
-22 -10 -9 -10 3 -2 61 9 67 10 69 15 32 l5 -40 17 31 c9 17 24 36 33 44 18
15 20 126 3 147 -6 7 -8 22 -5 33 3 11 1 18 -3 15 -8 -5 -26 100 -19 109 2 2
-5 14 -16 27 l-20 23 40 -22 40 -22 -29 24 c-16 13 -25 29 -22 35 4 6 11 9 15
6 5 -2 1 16 -8 41 -9 25 -17 38 -19 30 -5 -21 -19 -20 -26 2 -3 9 -2 -3 1 -27
4 -30 2 -41 -6 -37 -6 4 -11 15 -11 24 0 9 -5 24 -10 32 -18 29 -40 -10 -44
-81 -4 -74 -22 -143 -47 -179 -10 -16 -15 -38 -13 -60 4 -31 3 -32 -6 -12
l-10 24 -23 -29 c-44 -53 -57 -78 -57 -108 0 -24 -2 -27 -11 -15 -8 12 -9 9
-5 -13 8 -35 1 -47 -24 -40 -11 3 -18 8 -15 12 2 4 -3 20 -11 36 -8 15 -12 30
-10 32 2 3 10 -5 16 -17 10 -18 14 -20 21 -9 10 16 2 59 -15 76 -16 17 -59 5
-51 -15 5 -13 3 -13 -12 -1 -9 8 -14 9 -10 2 4 -6 3 -14 -3 -18 -5 -3 -10 0
-10 7 0 8 -13 29 -30 48 -25 30 -29 32 -30 15 -1 -17 -3 -16 -16 8 -16 29 -34
28 -34 -3 0 -10 -4 -21 -9 -25 -6 -3 -6 -18 0 -38 12 -41 11 -70 -1 -39 -13
32 -17 28 -15 -20 0 -24 -4 -46 -10 -50 -7 -6 -6 -10 1 -15 14 -10 24 -72 12
-79 -4 -3 -8 8 -8 25 0 34 -16 51 -23 24 -2 -10 -3 5 -1 32 1 28 6 59 10 70 7
18 6 18 -9 6 -9 -7 -14 -18 -11 -23 4 -5 -4 -8 -17 -6 -22 3 -24 0 -24 -44 0
-27 -3 -48 -6 -48 -4 0 -10 -15 -15 -32 -8 -33 -8 -33 -11 12 -2 25 -6 52 -10
60 -3 8 -5 21 -4 27 3 21 -17 15 -33 -9 -20 -28 -33 -15 -17 16 8 13 10 29 7
35 -4 6 -3 11 2 11 16 0 19 65 5 102 -9 23 -12 25 -8 8 2 -14 2 -36 -2 -48 -5
-21 -6 -21 -19 -5 -13 16 -14 14 -8 -21 4 -23 2 -41 -4 -45 -27 -16 -12 -152
22 -191 13 -16 15 -20 4 -11 -17 12 -18 9 -18 -47 0 -35 -5 -64 -12 -68 -8 -5
-10 11 -5 62 5 54 3 76 -11 106 -9 21 -19 38 -22 38 -11 0 -30 -56 -31 -89 0
-27 -2 -31 -8 -17 -6 17 -9 15 -20 -12 -7 -17 -20 -37 -29 -44 -14 -12 -15 -9
-8 22 6 31 5 33 -9 19 -12 -12 -14 -21 -6 -42 12 -31 19 -33 36 -11 9 13 10
10 7 -19 -2 -19 1 -38 7 -41 7 -4 11 1 11 13 0 11 5 23 10 26 13 8 13 -8 -2
-39 -9 -21 -14 -23 -25 -14 -11 9 -17 7 -29 -10 -8 -12 -21 -19 -28 -16 -12 5
-12 10 -1 38 8 20 10 38 5 46 -8 12 -10 12 -14 0 -16 -52 -17 -55 -25 -41 -7
11 -10 11 -17 0 -12 -19 -54 -42 -62 -34 -4 3 4 14 16 24 20 15 23 26 25 103
1 47 -1 89 -5 93 -4 4 -23 -6 -43 -24 -20 -17 -42 -31 -50 -31 -8 0 -14 -3
-13 -7 0 -5 -2 -16 -7 -27 -7 -16 -10 -14 -21 14 -8 18 -14 40 -13 49 0 12 2
12 9 -4 9 -19 9 -19 16 3 4 14 12 21 20 18 8 -3 18 4 24 15 6 11 14 17 19 15
4 -3 5 9 2 27 -4 31 -5 31 -12 7 -8 -27 -12 -11 -9 34 1 18 -2 26 -9 22 -6 -4
-11 -30 -11 -58 0 -41 -2 -48 -13 -39 -8 6 -17 7 -21 3 -4 -4 -6 13 -4 38 3
25 9 44 14 43 5 -1 9 11 8 25 -1 15 -3 33 -3 40 -1 6 -6 12 -12 12 -7 0 -9
-11 -5 -28 3 -15 3 -21 0 -14 -8 17 -24 15 -24 -4 0 -8 -4 -12 -10 -9 -16 10
-24 -46 -11 -82 16 -42 7 -56 -11 -18 l-13 28 -11 -39 -11 -39 0 57 c0 40 -6
66 -21 90 l-21 33 1 -37 c1 -22 5 -35 11 -31 7 4 8 -1 3 -12 -4 -11 -2 -22 6
-27 9 -6 7 -10 -10 -14 -17 -5 -22 -12 -19 -25 3 -11 1 -17 -4 -13 -5 3 -9 0
-9 -5 0 -6 -9 -11 -19 -11 -15 0 -18 5 -13 22 4 17 2 20 -15 16 -12 -3 -27 -2
-34 3 -10 6 -6 9 14 9 19 0 27 5 28 18 0 12 2 13 6 3 11 -26 33 62 27 104 -10
59 -54 116 -54 69 0 -10 -6 -14 -15 -10 -9 3 -15 0 -15 -9 0 -8 5 -15 10 -15
6 0 10 -16 10 -36 0 -19 -4 -33 -9 -29 -5 3 -23 -12 -40 -32 -34 -42 -38 -75
-17 -135 8 -21 10 -35 5 -33 -16 10 -31 78 -26 117 3 24 18 56 36 78 30 38 33
74 6 64 -14 -6 -85 -108 -85 -123 0 -5 -6 -14 -14 -20 -11 -9 -16 -9 -22 0 -4
7 -3 14 4 17 6 2 9 9 6 16 -3 8 2 16 10 19 9 4 16 18 16 33 0 24 -3 26 -35 22
-27 -3 -35 0 -35 12 -1 24 -29 -31 -30 -57 0 -28 20 -30 27 -3 3 11 9 20 15
20 12 0 -5 -31 -32 -55 -16 -15 -19 -15 -15 -3 4 9 2 18 -2 21 -10 6 -73 -144
-66 -156 3 -5 14 -1 24 9 35 32 28 9 -9 -31 -20 -21 -36 -41 -36 -44 1 -4 -1
-12 -3 -18 -3 -7 -11 -34 -18 -60 -7 -27 -14 -40 -14 -30 -1 9 -6 17 -12 17
-8 0 -8 4 -1 13 6 7 12 25 14 39 2 15 7 30 11 34 4 4 7 14 7 21 0 11 -8 10
-34 -6 -41 -26 -42 -26 -42 -1 0 15 7 20 28 20 29 0 51 27 46 58 -2 9 3 16 10
15 6 -2 12 4 12 13 0 15 -2 15 -25 0 -33 -21 -54 -10 -27 14 10 10 28 20 38
22 13 2 26 22 40 63 11 33 30 77 42 99 14 26 18 45 13 59 -10 28 -31 34 -31 9
0 -11 -6 -25 -14 -32 -8 -6 -12 -19 -9 -28 4 -15 3 -15 -6 -2 -8 11 -11 1 -12
-45 l-2 -60 -7 45 -6 45 -8 -52 c-5 -29 -13 -53 -19 -53 -6 0 -7 16 -2 43 4
23 7 50 7 60 -1 9 3 15 9 12 5 -4 14 7 21 22 7 15 21 41 31 56 20 29 16 50 -5
29 -22 -22 -27 -12 -10 17 15 27 15 32 1 61 -14 31 -16 32 -32 16 -9 -10 -17
-15 -17 -11 0 16 -61 -39 -66 -61 -3 -13 -9 -24 -14 -24 -4 0 -15 -16 -26 -35
-10 -19 -22 -35 -26 -35 -5 0 -8 -25 -8 -55 0 -30 -3 -55 -8 -55 -4 0 -6 19
-4 43 l4 42 -26 -37 c-14 -20 -26 -42 -26 -47 0 -14 -6 -14 -32 0 -11 6 -16
14 -11 18 15 10 23 55 13 71 -8 12 -12 12 -18 2 -6 -8 -9 -1 -10 20 0 18 -2
54 -3 79 -1 26 4 59 14 77 8 18 11 32 6 32 -28 0 20 59 48 60 7 0 26 24 42 53
17 28 35 59 41 67 6 8 33 50 61 92 43 67 69 94 69 73 0 -6 -30 -63 -60 -113
-55 -92 -55 -90 -26 -57 14 17 26 34 26 39 0 4 7 6 15 2 10 -3 15 1 15 11 0 9
25 42 55 74 30 32 55 64 55 72 0 8 7 20 16 28 10 8 14 22 10 39 -3 15 0 33 7
40 10 10 7 10 -11 0 -13 -6 -21 -14 -19 -17 8 -7 -45 -64 -57 -60 -16 5 -98
-85 -139 -153 -21 -34 -41 -60 -44 -56 -3 3 1 14 10 24 19 21 23 37 6 26 -8
-4 -8 0 0 15 14 25 26 28 17 4 -4 -10 -3 -14 1 -9 4 4 8 18 8 29 0 14 5 21 15
19 8 -2 12 0 8 4 -4 4 3 21 15 38 l22 31 -30 -19 c-53 -33 -72 -56 -105 -127
-17 -38 -36 -69 -41 -69 -5 0 -4 12 2 26 17 47 0 39 -21 -9 -11 -25 -25 -49
-31 -52 -5 -4 -9 -12 -8 -18 5 -41 -4 -48 -16 -12 -11 34 -14 36 -15 15 -2
-18 -4 -20 -7 -7 -3 10 0 23 5 30 15 17 21 72 11 88 -7 11 -9 9 -9 -7 0 -22
-29 -54 -48 -54 -7 0 -12 5 -12 11 0 6 6 9 14 6 8 -3 20 1 27 9 20 24 2 28
-29 5 -33 -23 -42 -26 -42 -11 0 5 22 25 50 42 46 31 50 36 50 75 0 69 -18 93
-45 56 -11 -15 -12 -15 -11 3 0 10 16 40 34 66 17 26 32 53 32 61 0 9 14 27
30 41 28 23 29 26 13 38 -18 13 -24 31 -27 80 l-1 28 -17 -23 c-10 -12 -18
-29 -18 -37 0 -8 -5 -22 -10 -30 -7 -11 -8 -5 -4 20 l7 35 -33 -30 c-24 -21
-31 -25 -27 -12 4 10 7 23 7 28 0 4 7 6 15 3 8 -4 15 -1 15 5 0 6 -5 11 -11
11 -6 0 -9 12 -7 28 2 22 -1 28 -19 30 -15 2 -23 -2 -23 -12 0 -10 6 -13 15
-10 19 8 20 -10 1 -25 -18 -15 -26 -59 -12 -64 5 -2 -2 -17 -17 -33 -15 -16
-26 -36 -24 -45 3 -9 0 -23 -5 -30 -7 -10 -8 -9 -4 6 4 15 -1 12 -19 -10 -13
-16 -30 -37 -38 -46 -7 -8 -12 -20 -10 -26 2 -6 -1 -14 -6 -18 -6 -3 -11 -1
-11 5 0 6 -4 9 -9 6 -12 -8 -20 -56 -9 -56 4 0 1 -11 -8 -25 -22 -34 -27 -27
-15 24 5 23 5 38 0 35 -5 -3 -9 -13 -9 -24 0 -22 -23 -33 -39 -17 -9 9 -14 8
-21 -3 -5 -8 -12 -11 -17 -7 -4 5 -3 11 3 15 5 4 17 20 27 35 10 16 25 27 35
25 26 -4 41 10 35 32 l-6 21 -14 -21 c-8 -11 -23 -20 -34 -20 -10 0 -19 -4
-19 -10 0 -5 -4 -10 -10 -10 -15 0 -50 -33 -50 -47 0 -7 -7 -13 -15 -13 -13 0
-13 4 2 28 l18 27 -25 -16 c-14 -9 -27 -25 -29 -35 -3 -17 -51 -71 -51 -57 0
3 -6 0 -13 -6 -8 -6 -17 -7 -21 -3 -4 4 -6 2 -5 -3 2 -6 -2 -20 -9 -33 -7 -12
-10 -28 -6 -34 4 -7 3 -8 -4 -4 -8 4 -16 -3 -22 -20 -6 -15 -13 -24 -16 -21
-3 3 7 31 21 62 30 62 28 78 -5 45 -26 -26 -34 -22 -21 11 5 13 10 18 10 10 1
-11 6 -10 21 4 14 13 20 14 20 5 0 -7 3 -10 6 -7 4 4 1 14 -7 24 -9 11 -10 14
-1 9 6 -4 12 -2 12 3 0 6 7 11 15 11 18 0 18 -5 4 -33 -11 -21 -10 -21 15 2
29 27 34 44 11 35 -8 -4 -15 -1 -15 6 0 6 -4 8 -10 5 -5 -3 -10 -1 -10 4 0 6
7 11 15 11 7 0 19 8 25 18 9 14 10 13 4 -8 l-6 -25 31 29 c18 18 31 40 31 54
l0 24 -18 -22 c-27 -34 -48 -17 -23 18 18 26 26 82 12 82 -4 0 -15 -18 -25
-41 -10 -22 -20 -38 -23 -35 -3 3 4 23 16 45 22 43 34 108 20 116 -11 7 -51
-85 -44 -102 2 -8 1 -12 -4 -9 -10 6 -31 -37 -31 -63 0 -22 -29 -92 -30 -72 0
8 4 28 10 45 41 131 40 129 25 116 -8 -7 -15 -18 -15 -25 0 -6 -9 -20 -20 -30
-11 -10 -20 -15 -20 -12 0 14 24 57 32 57 4 0 8 5 8 11 0 5 16 31 35 56 19 25
33 48 31 50 -17 17 -96 -75 -96 -112 0 -8 -4 -15 -10 -15 -14 0 -13 11 5 53
17 42 19 50 6 43 -5 -3 -11 4 -14 16 -7 24 3 41 10 20 5 -13 23 -7 23 9 0 6
-5 7 -10 4 -5 -3 -10 -1 -10 5 0 6 -4 9 -9 6 -13 -8 -33 82 -25 117 4 21 3 27
-6 22 -6 -4 -9 -10 -6 -13 4 -3 -1 -16 -10 -30 -9 -13 -13 -34 -10 -46 5 -20
5 -20 -9 -2 -8 11 -15 23 -15 27 0 13 -32 3 -40 -12 -15 -27 -23 -82 -11 -75
7 5 8 1 4 -10 -4 -11 -8 -13 -11 -6 -2 7 -7 10 -12 7 -4 -3 -10 4 -13 15 -3
11 -1 18 3 15 9 -6 30 56 30 89 0 25 -9 16 -15 -14 -2 -13 -11 -30 -19 -39
-25 -29 -27 -56 -8 -79 11 -12 22 -19 26 -15 3 3 6 1 6 -5 0 -7 -4 -12 -10
-12 -5 0 -10 -13 -10 -30 0 -16 -4 -30 -9 -30 -5 0 -12 -8 -14 -17 -3 -11 -5
-8 -6 9 0 15 4 38 10 52 14 29 -4 61 -28 51 -8 -3 -22 2 -31 11 -14 15 -14 17
0 25 10 6 14 17 10 36 -5 24 -3 26 10 15 18 -14 31 -3 42 36 9 28 -7 29 -34 0
-25 -27 -28 -23 -22 25 3 30 8 37 26 36 16 -1 17 -2 4 -6 -18 -5 -25 -33 -9
-33 6 0 25 14 43 31 23 22 26 28 11 20 -15 -7 -23 -8 -23 -2 0 6 -7 8 -16 4
-9 -3 -19 -1 -23 6 -5 7 -12 -4 -20 -28 -8 -29 -16 -39 -26 -35 -8 4 -15 1
-15 -5 0 -6 5 -11 10 -11 7 0 6 -8 -1 -22 -7 -13 -12 -25 -11 -28 1 -3 0 -12
-2 -20 -3 -8 -7 -41 -11 -72 -4 -40 -11 -58 -20 -58 -8 0 -12 6 -10 13 7 18
24 241 19 246 -2 3 -11 -5 -20 -17 -14 -21 -25 -23 -73 -13 -2 1 3 9 12 19 19
21 32 82 17 82 -5 0 -10 -10 -10 -23 0 -12 -9 -29 -19 -37 -11 -7 -18 -17 -15
-21 7 -12 -23 -79 -35 -79 -6 0 -11 5 -11 11 0 5 -4 7 -10 4 -5 -3 -10 0 -10
8 0 8 6 14 14 13 8 0 15 2 15 7 3 27 0 37 -9 32 -5 -3 -10 1 -10 9 0 9 -4 16
-9 16 -5 0 -16 3 -25 6 -12 5 -16 0 -16 -20 0 -15 -6 -29 -14 -32 -7 -3 -17
-23 -20 -45 -4 -22 -10 -38 -15 -35 -5 3 -12 -6 -16 -21 -5 -21 -8 -24 -15
-13 -6 9 -5 19 0 24 12 12 13 29 2 22 -5 -3 -9 1 -9 9 0 8 3 12 7 10 3 -2 6 5
6 15 0 10 -4 16 -8 14 -4 -3 -8 1 -9 8 -1 30 -38 -80 -38 -115 -1 -23 -5 -36
-11 -32 -5 3 -10 15 -10 27 0 17 -2 18 -15 8 -11 -9 -15 -9 -15 -1 0 6 6 14
14 17 8 3 13 16 11 30 -1 13 2 24 6 24 18 0 8 18 -12 23 -12 3 -18 10 -14 16
3 6 0 9 -8 5 -8 -3 -24 5 -36 17 -21 22 -21 22 -36 3 -8 -10 -13 -27 -11 -37
3 -13 0 -17 -12 -14 -18 3 -18 6 -8 50 4 16 2 27 -4 27 -5 0 -10 -8 -10 -19 0
-10 -6 -24 -14 -30 -12 -10 -14 -9 -11 6 11 54 14 117 5 102 -5 -10 -12 -37
-14 -60 -6 -58 -6 -57 -16 -34 -8 17 -9 18 -11 3 -2 -22 -3 -24 -18 -65 -19
-48 -29 -32 -18 25 6 26 7 60 3 75 -6 24 -9 26 -26 15 -11 -7 -18 -20 -15 -28
2 -8 0 -22 -6 -30 -9 -13 -10 -12 -5 2 7 25 -12 33 -33 14 -28 -26 -55 -9 -50
30 0 4 -5 11 -13 16 -10 7 -10 11 0 15 6 2 12 9 12 14 0 6 -5 7 -10 4 -5 -3
-10 -2 -10 3 0 6 7 12 15 16 11 4 14 19 12 61 -3 76 -35 73 -38 -3 l-1 -27 -7
25 c-4 14 -5 34 -1 45 19 54 20 75 6 75 -9 0 -13 -6 -10 -14 3 -8 1 -23 -5
-33 -6 -11 -11 -13 -11 -5 0 7 -5 10 -10 7 -6 -4 -8 -11 -4 -16 3 -5 7 -33 9
-62 2 -29 1 -44 -1 -35 -3 9 -21 23 -39 29 -38 14 -52 34 -29 43 9 4 12 2 8
-5 -4 -7 -1 -10 7 -7 8 3 17 20 20 39 3 19 11 46 17 62 7 17 8 27 2 27 -6 0
-16 -12 -22 -27 -9 -24 -12 -25 -16 -9 -3 15 -6 16 -13 5 -6 -11 -9 -8 -9 9 0
13 -6 22 -15 22 -9 0 -15 -9 -15 -22 0 -13 -4 -27 -8 -33 -11 -15 -42 -15 -43
1 -1 8 -3 19 -4 24 -1 6 -3 24 -4 40 0 17 -6 30 -11 30 -6 0 -8 -17 -5 -42 3
-24 0 -50 -5 -58 -8 -12 -10 -13 -10 -1 0 8 -3 11 -6 8 -4 -4 -2 -12 4 -20 6
-7 9 -22 7 -32 -2 -11 -4 -28 -4 -38 -1 -11 -6 -15 -13 -11 -8 5 -9 0 -5 -17
4 -13 7 -27 7 -32 0 -4 13 -1 30 8 42 22 51 18 13 -5 -18 -11 -33 -25 -33 -32
0 -27 29 -93 39 -90 6 1 11 -1 11 -4 0 -12 -24 -50 -39 -61 -14 -11 -14 -12 2
-13 9 0 17 -4 17 -10 0 -13 1 -16 16 -67 11 -36 11 -45 -1 -57 -13 -12 -13
-18 0 -43 18 -35 20 -67 3 -58 -7 4 -2 -3 11 -14 13 -12 21 -24 19 -27 -7 -6
17 -102 41 -169 31 -83 46 -165 33 -174 -7 -4 -10 -20 -9 -37 4 -30 46 -118
47 -97 0 7 7 10 15 7 10 -4 12 -11 6 -22 -5 -9 -5 -26 0 -41 6 -13 7 -31 4
-40 -5 -12 -10 -10 -29 10 -13 14 -27 35 -30 47 -4 13 -12 19 -18 16 -6 -4 -8
-2 -4 4 3 6 -5 27 -19 48 -14 20 -25 42 -25 49 0 14 -39 140 -92 295 -21 63
-41 126 -43 140 -3 14 -9 34 -14 45 -16 39 -34 100 -37 128 -2 15 -8 36 -14
47 -5 10 -12 37 -15 59 -6 44 -22 91 -62 182 -24 54 -28 57 -68 62 -40 6 -78
23 -143 65 -35 22 -45 36 -81 107 -85 174 -106 272 -88 430 3 33 9 155 13 271
l6 211 -27 53 c-49 96 -44 209 15 332 34 71 95 126 145 130 36 3 39 15 25 84
-7 31 -13 75 -14 98 -2 23 -9 93 -16 156 -12 105 -11 132 9 310 12 107 26 224
31 260 5 36 14 110 20 165 17 149 18 153 25 164 11 19 -1 12 -21 -11z m3822
-1374 c-20 -19 -20 -31 -2 -41 18 -11 28 -45 17 -62 -7 -10 -12 -9 -23 8 -8
11 -18 18 -21 15 -4 -4 -13 -1 -21 6 -13 10 -11 17 16 51 17 21 35 39 40 39 5
0 2 -7 -6 -16z m-307 -18 c-12 -11 -69 -16 -69 -7 0 6 7 12 15 12 28 3 33 4
41 12 5 5 10 3 12 -3 2 -6 2 -13 1 -14z m-244 -16 c7 -12 -2 -12 -30 0 -19 8
-19 9 2 9 12 1 25 -3 28 -9z m259 -21 c-8 -14 -21 -11 -21 5 0 8 6 12 14 9 7
-3 10 -9 7 -14z m-114 -21 c0 -5 -7 -3 -15 6 -8 8 -15 18 -15 22 0 3 7 1 15
-6 8 -7 15 -17 15 -22z m64 17 c-4 -8 -11 -12 -16 -9 -6 4 -5 10 3 15 19 12
19 11 13 -6z m-871 -14 c-3 -13 -10 -18 -20 -14 -14 5 -13 8 3 20 23 17 23 17
17 -6z m11 -67 c3 -8 2 -12 -4 -9 -6 3 -10 10 -10 16 0 14 7 11 14 -7z m1406
-14 c0 -5 -5 -10 -11 -10 -5 0 -7 5 -4 10 3 6 8 10 11 10 2 0 4 -4 4 -10z m70
-31 c0 -4 -7 -10 -16 -13 -21 -8 -44 11 -44 35 0 17 1 17 30 1 16 -9 30 -20
30 -23z m40 -19 c8 -5 11 -10 5 -10 -5 0 -17 5 -25 10 -8 5 -10 10 -5 10 6 0
17 -5 25 -10z m-156 -95 c6 -11 12 -21 13 -23 0 -2 7 -4 15 -5 17 -3 66 -37
52 -37 -5 0 -16 6 -23 13 -11 10 -13 9 -8 -6 5 -12 3 -16 -5 -11 -24 15 -59
48 -74 72 -14 22 -14 24 2 20 9 -1 22 -12 28 -23z m-54 -6 c0 -5 4 -8 9 -4 5
3 19 -7 30 -22 11 -16 31 -39 44 -53 14 -14 27 -34 31 -45 3 -11 -11 0 -31 25
-21 25 -53 60 -72 78 -19 17 -30 32 -23 32 7 0 12 -5 12 -11z m-115 -59 c3 -5
2 -10 -4 -10 -5 0 -13 5 -16 10 -3 6 -2 10 4 10 5 0 13 -4 16 -10z m123 -39
c23 -12 32 -47 10 -36 -7 4 -5 0 5 -8 17 -14 16 -15 -4 -20 -11 -3 -18 -3 -15
0 3 4 -2 15 -11 26 -10 11 -12 17 -5 13 14 -8 17 10 2 19 -5 3 -15 16 -20 28
-10 19 -9 20 2 6 7 -9 23 -21 36 -28z m-63 9 c3 -6 -1 -7 -9 -4 -18 7 -21 14
-7 14 6 0 13 -4 16 -10z m213 -35 c-3 -3 -9 2 -12 12 -6 14 -5 15 5 6 7 -7 10
-15 7 -18z m82 -30 c0 -5 -5 -3 -10 5 -5 8 -10 20 -10 25 0 6 5 3 10 -5 5 -8
10 -19 10 -25z m-165 -25 c8 -13 -5 -13 -25 0 -13 8 -13 10 2 10 9 0 20 -4 23
-10z m281 -72 c8 -16 13 -28 11 -28 -6 0 -57 79 -57 87 1 10 28 -25 46 -59z
m-73 -21 c4 3 7 2 7 -4 0 -17 -13 -23 -27 -12 -7 6 -13 16 -13 21 0 7 5 6 13
-1 8 -6 17 -8 20 -4z m-743 -72 c0 -2 -15 -12 -32 -20 l-33 -16 24 21 c22 19
41 26 41 15z m50 -19 c0 -3 -4 -8 -10 -11 -5 -3 -10 -1 -10 4 0 6 5 11 10 11
6 0 10 -2 10 -4z m-180 -22 c0 -10 -25 -31 -57 -48 -37 -19 -43 -20 -43 -6 0
6 6 10 13 10 8 0 27 11 43 25 28 24 44 31 44 19z m888 -15 c17 -27 5 -40 -14
-15 -8 11 -14 23 -14 28 0 15 15 8 28 -13z m615 -285 c-4 -11 -8 -12 -20 -3
-11 10 -11 14 -1 20 17 10 28 2 21 -17z m-2362 -49 c5 3 6 -1 3 -9 -11 -29
-29 -24 -27 8 2 41 5 46 10 18 2 -12 9 -20 14 -17z m2284 16 c3 -5 1 -12 -5
-16 -5 -3 -10 1 -10 9 0 18 6 21 15 7z m92 -13 c-3 -8 -6 -5 -6 6 -1 11 2 17
5 13 3 -3 4 -12 1 -19z m-62 -23 c1 -20 -2 -22 -13 -12 -9 7 -10 13 -4 15 6 2
8 11 5 20 -4 10 -2 14 3 9 5 -5 9 -19 9 -32z m-3 -35 c30 -18 32 -22 12 -19
-4 0 -10 -5 -15 -12 -6 -10 -11 -10 -23 0 -9 7 -13 17 -10 22 3 5 0 9 -5 9 -6
0 -11 5 -11 10 0 15 16 12 52 -10z m98 10 c0 -5 -5 -10 -11 -10 -5 0 -7 -4 -4
-10 3 -5 1 -10 -4 -10 -6 0 -11 9 -11 20 0 11 7 20 15 20 8 0 15 -4 15 -10z
m-160 -31 c39 -21 52 -39 27 -39 -7 0 -20 8 -28 18 -9 9 -25 22 -35 29 -32 20
-7 14 36 -8z m254 -36 c51 -46 74 -75 51 -67 -8 3 -15 1 -15 -6 0 -6 -5 -8
-11 -4 -8 4 -7 9 2 15 7 4 11 10 9 12 -33 26 -72 47 -79 43 -5 -3 -8 5 -7 19
0 14 3 25 5 25 2 0 22 -17 45 -37z m-73 4 c-10 -9 -11 -8 -5 6 3 10 9 15 12
12 3 -3 0 -11 -7 -18z m-83 -33 c-4 -3 -12 5 -18 18 -12 22 -12 22 6 6 10 -10
15 -20 12 -24z m-38 -5 c0 -6 -4 -7 -10 -4 -5 3 -10 11 -10 16 0 6 5 7 10 4 6
-3 10 -11 10 -16z m-2439 -70 c-9 -9 -18 -15 -20 -13 -3 3 1 10 7 16 7 7 12
21 13 33 0 20 0 20 8 0 6 -14 3 -25 -8 -36z m2475 33 c-3 -2 4 -16 14 -30 25
-31 28 -61 5 -42 -9 7 -18 10 -21 7 -8 -8 19 -47 37 -52 9 -3 21 -18 28 -33
l12 -27 -21 25 c-24 30 -25 22 -5 -28 12 -27 18 -33 25 -23 6 11 9 9 14 -10 3
-13 3 1 1 31 -3 59 -22 113 -36 104 -5 -3 -6 2 -3 11 6 14 10 13 31 -7 14 -13
29 -32 35 -43 7 -15 4 -13 -12 5 -19 22 -20 22 -11 3 6 -12 13 -46 16 -75 3
-29 8 -65 11 -79 4 -20 1 -26 -13 -26 -10 0 -25 8 -33 17 -8 9 -29 33 -46 52
-17 19 -63 56 -103 82 -40 26 -71 49 -68 52 5 6 52 -21 75 -43 7 -7 18 -14 23
-14 18 -3 24 -5 47 -17 12 -7 22 -10 22 -6 0 7 -46 52 -58 56 -4 1 -6 8 -4 16
3 10 -1 11 -17 2 -17 -8 -20 -8 -15 4 3 9 -6 26 -23 42 l-28 27 33 -17 c18 -9
37 -14 42 -11 14 9 2 25 -14 19 -17 -6 -41 22 -26 31 13 8 50 -3 50 -16 0 -5
5 -9 11 -9 6 0 9 9 6 19 -3 14 -1 18 10 14 7 -3 12 -8 9 -11z m49 -102 c3 -5
1 -10 -4 -10 -6 0 -11 5 -11 10 0 6 2 10 4 10 3 0 8 -4 11 -10z m-112 -106
c18 -12 37 -19 42 -16 6 3 5 -1 -2 -8 -13 -14 -8 -18 67 -57 19 -10 46 -31 59
-46 28 -33 41 -28 17 7 -20 31 -20 37 -2 30 13 -5 30 -39 27 -56 -1 -5 4 -8
10 -8 5 0 8 -4 5 -9 -4 -5 -1 -22 5 -38 7 -15 11 -42 10 -60 -1 -21 4 -35 16
-42 10 -6 13 -11 7 -11 -19 0 -34 25 -39 70 -6 49 -30 86 -79 124 -36 27 -56
33 -56 16 0 -6 -20 11 -45 37 -25 27 -49 51 -53 55 -4 5 -29 29 -57 54 -47 43
-47 44 -7 12 24 -18 58 -43 75 -54z m292 -54 c10 -14 -1 -6 -25 18 -23 24 -53
50 -66 59 -13 8 -22 19 -19 23 5 8 78 -58 110 -100z m-2675 79 c-7 -11 -14
-18 -17 -15 -3 3 0 12 7 21 18 21 23 19 10 -6z m37 -41 c-3 -8 -6 -5 -6 6 -1
11 2 17 5 13 3 -3 4 -12 1 -19z m2343 -30 c0 -4 -8 -4 -17 -1 -16 6 -16 5 -4
-10 7 -9 9 -17 4 -17 -8 0 -53 53 -53 63 0 8 69 -28 70 -35z m-107 25 c-7 -2
-19 -2 -25 0 -7 3 -2 5 12 5 14 0 19 -2 13 -5z m-4143 -53 c0 -5 -4 -10 -10
-10 -5 0 -10 5 -10 10 0 6 5 10 10 10 6 0 10 -4 10 -10z m1740 -5 c0 -8 -4
-15 -10 -15 -5 0 -7 7 -4 15 4 8 8 15 10 15 2 0 4 -7 4 -15z m-1656 -20 c-4
-8 -8 -15 -10 -15 -2 0 -4 7 -4 15 0 8 4 15 10 15 5 0 7 -7 4 -15z m4217 -12
c13 -15 12 -15 -11 -3 -34 17 -36 20 -18 20 9 0 22 -7 29 -17z m-266 -23 c3
-5 1 -10 -4 -10 -6 0 -11 5 -11 10 0 6 2 10 4 10 3 0 8 -4 11 -10z m235 -10
c0 -5 -2 -10 -4 -10 -3 0 -8 5 -11 10 -3 6 -1 10 4 10 6 0 11 -4 11 -10z
m-4285 -9 c3 -5 1 -12 -5 -16 -5 -3 -10 1 -10 9 0 18 6 21 15 7z m55 -26 c0
-13 6 -26 13 -28 22 -10 -12 -24 -41 -18 -25 5 -25 6 -4 9 27 4 31 42 5 43
-11 0 -13 3 -5 6 6 2 10 9 7 14 -4 5 1 6 9 3 9 -3 16 -17 16 -29z m-122 0 c-3
-3 -9 2 -12 12 -6 14 -5 15 5 6 7 -7 10 -15 7 -18z m4192 15 c0 -5 -2 -10 -4
-10 -3 0 -8 5 -11 10 -3 6 -1 10 4 10 6 0 11 -4 11 -10z m37 -6 c-3 -3 -12 -4
-19 -1 -8 3 -5 6 6 6 11 1 17 -2 13 -5z m66 -30 c21 -14 35 -29 32 -35 -4 -5
4 -13 17 -18 28 -11 117 -101 100 -101 -21 0 -13 -20 13 -30 14 -5 25 -16 25
-23 0 -7 17 -23 39 -35 21 -12 45 -29 52 -39 9 -10 -4 -6 -33 11 l-48 28 -1
-24 c-1 -12 -1 -27 0 -31 1 -5 -3 -6 -9 -2 -6 3 -8 10 -5 15 3 5 1 12 -5 15
-8 5 -8 11 0 20 8 9 0 25 -32 64 -36 43 -47 50 -68 45 -14 -3 -22 -2 -18 2 4
4 0 13 -10 20 -14 11 -11 12 21 3 22 -6 41 -9 43 -6 3 2 -20 21 -51 42 -32 23
-51 41 -44 45 6 4 -8 18 -33 33 -24 14 -38 26 -33 27 6 0 27 -11 48 -26z m329
-31 c11 -25 17 -47 14 -50 -3 -4 -6 -1 -6 6 0 7 -4 10 -9 7 -5 -3 -14 0 -20 8
-9 11 -9 15 1 19 10 3 9 12 -4 36 -10 18 -13 29 -7 25 6 -4 20 -27 31 -51z
m-227 17 c10 -11 14 -20 8 -20 -5 0 -18 9 -28 20 -10 11 -14 20 -8 20 5 0 18
-9 28 -20z m35 0 c6 -11 9 -20 7 -20 -2 0 -12 9 -22 20 -10 11 -13 20 -7 20 6
0 16 -9 22 -20z m-3944 -27 c-10 -10 -19 5 -10 18 6 11 8 11 12 0 2 -7 1 -15
-2 -18z m257 7 c3 -11 1 -18 -4 -14 -5 3 -9 12 -9 20 0 20 7 17 13 -6z m-248
-59 c-15 -27 -23 -56 -19 -62 4 -8 3 -9 -4 -5 -7 4 -12 2 -12 -5 0 -7 -3 -10
-6 -7 -9 10 19 89 40 114 30 33 31 22 1 -35z m223 34 c-3 -3 -9 2 -12 12 -6
14 -5 15 5 6 7 -7 10 -15 7 -18z m176 9 c4 -12 2 -15 -9 -10 -10 3 -15 -1 -16
-12 0 -11 -2 -12 -6 -4 -3 7 1 19 7 27 15 19 16 19 24 -1z m-764 -10 c0 -8 -4
-12 -10 -9 -5 3 -10 10 -10 16 0 5 5 9 10 9 6 0 10 -7 10 -16z m140 6 c0 -5
-5 -10 -11 -10 -5 0 -7 5 -4 10 3 6 8 10 11 10 2 0 4 -4 4 -10z m4192 -25 c10
-19 13 -35 8 -35 -8 0 -40 51 -40 65 0 16 17 0 32 -30z m-4075 -5 c-12 -17
-15 -18 -20 -5 -4 9 -1 15 8 15 8 0 15 5 15 12 0 6 3 9 6 5 3 -3 -1 -15 -9
-27z m-393 -6 c9 -22 -3 -32 -14 -14 -12 19 -12 30 -1 30 5 0 12 -7 15 -16z
m847 -20 c5 -7 3 -11 -6 -11 -10 0 -15 10 -14 26 0 16 3 20 6 11 3 -8 10 -20
14 -26z m-299 -6 c-7 -7 -12 -8 -12 -2 0 6 3 14 7 17 3 4 9 5 12 2 2 -3 -1
-11 -7 -17z m-380 -38 c6 0 4 -8 -5 -18 -10 -10 -18 -29 -18 -43 l-2 -24 -4
23 c-3 17 -9 22 -21 17 -12 -4 -10 1 6 15 12 11 23 33 23 48 2 23 2 24 6 5 2
-13 9 -23 15 -23z m160 -15 c-7 -39 -19 -29 -18 15 1 32 3 37 12 25 6 -8 9
-26 6 -40z m50 30 c-2 -14 -9 -25 -14 -25 -5 0 -7 3 -5 8 2 4 7 15 10 25 9 25
15 21 9 -8z m843 -2 c-7 -30 -13 -39 -19 -32 -8 8 6 59 16 59 6 0 7 -11 3 -27z
m-960 -31 c-6 -7 -35 18 -35 31 0 5 9 2 20 -8 11 -10 18 -20 15 -23z m4252 2
c-2 -2 -11 -2 -20 2 -13 4 -14 9 -4 19 10 11 14 10 20 -2 5 -8 7 -17 4 -19z
m-4295 9 c6 -24 -1 -45 -14 -37 -7 4 -9 -10 -7 -40 2 -25 1 -46 -3 -46 -10 0
-11 124 -1 133 11 12 20 8 25 -10z m606 -14 c-3 -8 -7 -3 -11 10 -4 17 -3 21
5 13 5 -5 8 -16 6 -23z m49 -36 l2 -58 -14 45 c-15 44 -13 70 3 70 4 0 8 -26
9 -57z m-850 15 c-3 -7 -5 -2 -5 12 0 14 2 19 5 13 2 -7 2 -19 0 -25z m4144
15 c13 -16 12 -17 -3 -4 -10 7 -18 15 -18 17 0 8 8 3 21 -13z m184 -44 c14
-16 6 -13 -22 10 -24 18 -46 38 -50 44 -10 17 49 -28 72 -54z m-4275 9 c0 -7
-5 -6 -13 1 -8 6 -17 8 -21 4 -4 -4 -4 0 0 10 5 14 9 15 20 6 8 -6 14 -16 14
-21z m389 25 c0 -5 -4 -17 -9 -28 -8 -18 -9 -17 -9 8 -1 15 4 27 9 27 6 0 10
-3 9 -7z m304 -13 c-3 -12 -8 -19 -11 -16 -5 6 5 36 12 36 2 0 2 -9 -1 -20z
m448 7 c0 -4 -4 -19 -7 -33 -4 -16 -2 -29 6 -34 8 -5 8 -10 2 -14 -5 -3 -13 2
-16 11 -6 14 -10 13 -33 -8 l-27 -24 15 25 c9 14 23 37 32 51 10 14 14 29 10
34 -5 4 -2 6 5 4 8 -3 13 -8 13 -12z m3338 -34 c1 -22 -16 -14 -22 9 -8 28 4
47 14 22 4 -10 8 -25 8 -31z m-399 -9 c0 -9 -37 15 -51 33 -10 12 -5 11 19 -6
17 -12 32 -24 32 -27z m-3616 21 c-4 -8 -10 -12 -15 -9 -11 6 -2 24 11 24 5 0
7 -7 4 -15z m607 -18 c-10 -9 -11 -8 -5 6 3 10 9 15 12 12 3 -3 0 -11 -7 -18z
m2829 8 c7 -8 8 -15 2 -15 -5 0 -15 7 -22 15 -7 8 -8 15 -2 15 5 0 15 -7 22
-15z m-3708 -20 c-3 -20 -1 -24 11 -19 10 4 15 0 14 -13 -2 -12 5 -18 19 -17
12 0 21 -7 21 -17 1 -10 -5 -16 -15 -15 -9 0 -16 -5 -14 -11 1 -7 -3 -12 -10
-10 -6 1 -18 -9 -25 -23 -14 -24 -14 -24 -11 17 3 31 -1 45 -14 55 -22 15 -23
28 -3 28 9 0 15 9 15 25 0 14 4 25 9 25 4 0 6 -11 3 -25z m588 -5 c0 -16 -2
-30 -4 -30 -2 0 -6 14 -8 30 -3 17 -1 30 4 30 4 0 8 -13 8 -30z m991 -5 c20
13 8 -8 -16 -27 -14 -11 -25 -30 -25 -44 0 -13 -3 -24 -7 -24 -5 0 -21 -36
-38 -81 -20 -55 -31 -74 -36 -62 -3 9 -9 -14 -12 -51 -7 -75 -44 -167 -58
-145 -5 8 -2 21 8 31 9 10 12 18 7 18 -5 0 -3 4 3 8 15 9 39 119 29 129 -3 4
-13 -2 -20 -13 -8 -10 -23 -30 -35 -44 l-22 -25 18 30 c9 17 27 44 38 60 12
17 22 41 23 55 l1 25 -20 -24 c-10 -12 -16 -28 -12 -34 3 -6 1 -7 -5 -3 -7 4
-12 1 -12 -8 0 -9 -4 -16 -9 -16 -5 0 -16 -12 -26 -26 -11 -18 -13 -24 -4 -19
8 5 5 -1 -6 -12 -11 -11 -22 -16 -24 -11 -2 5 -12 -4 -22 -21 -10 -17 -24 -31
-30 -31 -11 0 -2 16 38 75 7 11 13 30 13 42 0 13 5 23 11 23 6 0 9 6 6 14 -6
15 24 49 39 44 18 -4 54 14 54 28 0 8 5 14 10 14 6 0 10 7 10 15 0 18 60 128
67 121 2 -2 -3 -18 -12 -35 -8 -17 -14 -31 -12 -31 12 0 56 49 63 70 8 25 8
25 12 2 2 -12 8 -20 13 -17z m-1481 3 c0 -6 -6 -5 -15 2 -8 7 -15 14 -15 16 0
2 7 1 15 -2 8 -4 15 -11 15 -16z m-342 -16 c2 -9 6 -30 9 -47 l5 -30 -16 29
c-9 15 -16 40 -16 54 0 27 11 23 18 -6z m647 18 c-3 -5 -11 -10 -16 -10 -6 0
-7 5 -4 10 3 6 11 10 16 10 6 0 7 -4 4 -10z m-588 -35 c1 -18 -1 -22 -4 -10
-3 11 -13 25 -22 33 -14 12 -14 13 4 10 14 -2 21 -12 22 -33z m4104 18 c13
-16 12 -17 -3 -4 -10 7 -18 15 -18 17 0 8 8 3 21 -13z m-3784 -33 c-5 -40 -37
-88 -37 -56 0 8 4 17 9 20 5 3 12 22 15 41 9 48 20 44 13 -5z m4011 -8 c-4 -2
-5 -9 -2 -14 4 -7 2 -8 -4 -4 -7 4 -12 15 -12 25 0 9 -3 21 -7 27 -5 5 1 0 13
-11 12 -11 17 -22 12 -23z m-3926 8 c-2 -16 -8 -30 -13 -30 -5 0 -6 7 -4 15 3
8 7 22 10 30 8 25 12 17 7 -15z m515 -2 c-3 -7 -5 -2 -5 12 0 14 2 19 5 13 2
-7 2 -19 0 -25z m3361 15 c10 -10 10 -13 -1 -13 -8 0 -20 6 -26 13 -8 10 -7
14 2 14 7 0 18 -6 25 -14z m-113 -9 c20 -8 35 -17 32 -20 -3 -3 -22 4 -44 15
-46 24 -40 27 12 5z m-3040 -3 c3 -5 1 -12 -5 -16 -5 -3 -10 1 -10 9 0 18 6
21 15 7z m-75 -9 c0 -9 -71 -85 -114 -122 l-29 -25 16 25 c11 17 13 30 7 40
-7 11 -10 11 -10 2 0 -7 -9 -31 -20 -54 -15 -31 -17 -45 -8 -55 8 -11 7 -12
-6 -7 -11 4 -16 1 -16 -12 0 -11 -5 -26 -11 -34 -8 -11 -9 -8 -3 15 4 17 6 38
6 49 -1 10 4 23 9 30 6 6 18 26 27 45 17 34 57 55 45 24 -10 -26 30 1 68 46
36 43 39 45 39 33z m2921 -10 c-7 -2 -18 1 -23 6 -8 8 -4 9 13 5 13 -4 18 -8
10 -11z m108 -18 c14 -12 -19 -1 -35 12 -18 14 -18 14 6 3 14 -6 27 -13 29
-15z m328 4 c-3 -8 -6 -5 -6 6 -1 11 2 17 5 13 3 -3 4 -12 1 -19z m-3176 -15
c-12 -20 -14 -14 -5 12 4 9 9 14 11 11 3 -2 0 -13 -6 -23z m3013 -2 c-2 -3
-12 3 -22 13 -16 17 -16 18 5 5 12 -7 20 -15 17 -18z m-4007 -49 c-15 -18 -20
-7 -12 25 7 25 8 26 15 8 4 -11 3 -26 -3 -33z m93 28 c0 -5 -5 -10 -11 -10 -5
0 -7 5 -4 10 3 6 8 10 11 10 2 0 4 -4 4 -10z m747 -17 c0 -16 4 -38 8 -50 5
-15 3 -23 -4 -23 -6 0 -11 10 -11 23 0 13 -5 28 -11 34 -8 8 -8 15 2 27 8 8
14 15 15 16 1 0 1 -12 1 -27z m-720 -20 c-3 -10 -5 -4 -5 12 0 17 2 24 5 18 2
-7 2 -21 0 -30z m3988 8 c2 -11 0 -21 -6 -21 -5 0 -9 12 -9 27 0 30 9 27 15
-6z m-170 9 c3 -5 2 -10 -4 -10 -5 0 -13 5 -16 10 -3 6 -2 10 4 10 5 0 13 -4
16 -10z m230 -23 c-4 -9 -13 -13 -20 -10 -11 4 -12 9 -2 24 13 21 31 10 22
-14z m-4138 -7 c-5 -31 -17 -36 -17 -7 0 15 4 27 10 27 5 0 9 -9 7 -20z m-57
-10 c0 -5 -12 -10 -27 -9 l-28 1 25 8 c14 4 26 8 28 9 1 1 2 -3 2 -9z m370 6
c0 -3 -4 -8 -10 -11 -5 -3 -10 -1 -10 4 0 6 5 11 10 11 6 0 10 -2 10 -4z
m-325 -45 c-6 -5 -25 10 -25 20 0 5 6 4 14 -3 8 -7 12 -15 11 -17z m926 -4
c-13 -13 -26 -3 -16 12 3 6 11 8 17 5 6 -4 6 -10 -1 -17z m546 1 c-3 -8 -6 -5
-6 6 -1 11 2 17 5 13 3 -3 4 -12 1 -19z m2614 -5 c13 -16 12 -17 -3 -4 -10 7
-18 15 -18 17 0 8 8 3 21 -13z m-3503 -8 c2 -2 -18 -5 -43 -7 -30 -2 -50 1
-57 10 -9 11 -1 12 43 6 30 -4 55 -8 57 -9z m268 -17 l17 -33 -22 19 c-11 11
-21 25 -21 33 0 21 8 15 26 -19z m-1134 0 c-7 -7 -12 -8 -12 -2 0 6 3 14 7 17
3 4 9 5 12 2 2 -3 -1 -11 -7 -17z m1377 4 c-7 -3 -17 -10 -21 -16 -5 -7 -8 -5
-8 5 0 22 9 29 28 21 13 -5 14 -6 1 -10z m-792 -14 c-3 -8 -6 -5 -6 6 -1 11 2
17 5 13 3 -3 4 -12 1 -19z m833 12 c0 -5 -4 -10 -10 -10 -5 0 -10 5 -10 10 0
6 5 10 10 10 6 0 10 -4 10 -10z m-360 -14 c0 -2 -8 -10 -17 -17 -16 -13 -17
-12 -4 4 13 16 21 21 21 13z m3350 -6 c0 -5 -8 -10 -17 -10 -15 0 -16 2 -3 10
19 12 20 12 20 0z m58 -26 l37 -36 -42 32 c-24 19 -43 35 -43 37 0 10 15 -1
48 -33z m-3913 16 c3 -5 1 -10 -4 -10 -6 0 -11 5 -11 10 0 6 2 10 4 10 3 0 8
-4 11 -10z m3760 -8 c-3 -3 -11 0 -18 7 -9 10 -8 11 6 5 10 -3 15 -9 12 -12z
m-3334 -22 l24 -21 -32 16 c-32 15 -42 25 -24 25 5 0 19 -9 32 -20z m379 -10
c-24 -15 -36 -11 -14 4 10 8 21 12 24 10 2 -3 -2 -9 -10 -14z m3064 5 c3 -8 1
-15 -4 -15 -6 0 -10 7 -10 15 0 8 2 15 4 15 2 0 6 -7 10 -15z m-4324 -32 c0
-20 -3 -24 -11 -16 -7 7 -9 19 -6 27 10 24 17 19 17 -11z m1470 3 c0 -2 -8
-10 -17 -17 -16 -13 -17 -12 -4 4 13 16 21 21 21 13z m350 -60 c-7 -7 -10 -5
-10 5 0 12 -2 12 -10 -1 -14 -21 -12 -6 2 25 l12 27 8 -23 c5 -13 5 -26 -2
-33z m-1625 34 c3 -5 1 -10 -4 -10 -6 0 -11 5 -11 10 0 6 2 10 4 10 3 0 8 -4
11 -10z m499 -43 c-3 -8 -12 -18 -20 -21 -11 -4 -10 0 3 18 20 26 27 28 17 3z
m-619 -7 c3 -5 -1 -10 -9 -10 -9 0 -16 5 -16 10 0 6 4 10 9 10 6 0 13 -4 16
-10z m275 -37 c0 -24 30 -74 40 -68 6 4 10 -2 10 -11 0 -10 8 -27 17 -38 9
-12 0 -5 -20 14 -30 29 -78 123 -77 150 1 11 30 -35 30 -47z m979 9 c14 12 15
11 2 -5 -13 -16 -15 -16 -45 2 -17 11 -33 26 -35 33 -2 7 11 0 29 -15 27 -23
35 -26 49 -15z m211 -8 c-18 -21 -24 -10 -9 18 8 14 14 18 17 10 2 -7 -2 -19
-8 -28z m80 21 c0 -8 -9 -23 -20 -32 -11 -10 -20 -23 -20 -30 0 -7 -4 -13 -8
-13 -7 0 -42 -63 -42 -75 0 -11 33 -4 70 15 31 16 40 17 40 7 0 -9 -22 -19
-57 -27 -69 -16 -74 -20 -90 -68 l-12 -37 5 34 c4 18 17 55 30 81 13 26 24 53
24 59 0 6 3 11 8 11 4 0 20 20 35 45 31 48 37 53 37 30z m-1645 -4 c3 -5 1
-12 -5 -16 -5 -3 -10 1 -10 9 0 18 6 21 15 7z m132 -23 c-3 -8 -6 -5 -6 6 -1
11 2 17 5 13 3 -3 4 -12 1 -19z m903 12 c0 -5 -5 -10 -11 -10 -5 0 -7 5 -4 10
3 6 8 10 11 10 2 0 4 -4 4 -10z m3221 -27 c13 -17 13 -17 -6 -3 -11 8 -22 16
-24 17 -2 2 0 3 6 3 6 0 17 -8 24 -17z m-4220 0 c7 -49 6 -83 0 -78 -11 6 -19
85 -9 85 5 0 8 -3 9 -7z m646 1 c-3 -3 -12 -4 -19 -1 -8 3 -5 6 6 6 11 1 17
-2 13 -5z m3437 -10 c5 -14 4 -15 -9 -4 -17 14 -19 20 -6 20 5 0 12 -7 15 -16z
m-3501 -1 c-7 -2 -21 -2 -30 0 -10 3 -4 5 12 5 17 0 24 -2 18 -5z m927 -8 c0
-8 -4 -15 -10 -15 -5 0 -7 7 -4 15 4 8 8 15 10 15 2 0 4 -7 4 -15z m2080 -22
c0 -34 -1 -35 -14 -18 -10 14 -11 25 -5 37 14 27 19 22 19 -19z m-3615 17 c3
-5 1 -10 -4 -10 -6 0 -11 5 -11 10 0 6 2 10 4 10 3 0 8 -4 11 -10z m1049 -39
c-11 -22 -24 -42 -30 -45 -6 -2 1 18 15 44 31 58 41 58 15 1z m-1078 23 c-4
-9 -1 -23 5 -30 6 -7 9 -19 6 -26 -3 -8 -10 -1 -16 16 -11 28 -9 56 5 56 3 0
3 -7 0 -16z m521 -6 c-3 -8 -6 -5 -6 6 -1 11 2 17 5 13 3 -3 4 -12 1 -19z
m3093 -43 c14 -19 14 -19 -2 -6 -10 7 -18 18 -18 24 0 6 1 8 3 6 1 -2 9 -13
17 -24z m-2621 -6 c-8 -5 -23 -9 -34 -9 -17 0 -17 2 5 14 27 14 52 10 29 -5z
m742 -8 c-26 -24 -31 -37 -31 -74 0 -27 5 -47 13 -50 6 -2 -15 -10 -48 -16
-85 -18 -95 -21 -95 -34 0 -7 -4 -6 -10 3 -5 8 -9 29 -9 45 0 28 1 29 9 7 9
-20 15 -22 47 -17 87 14 83 10 83 68 0 56 24 97 56 97 11 0 6 -9 -15 -29z
m-219 -53 c-28 -85 -40 -192 -23 -202 15 -10 14 -23 -3 -23 -8 0 -17 13 -20
29 -10 51 41 268 63 268 4 0 -3 -33 -17 -72z m-1157 51 c11 -17 -1 -21 -15 -4
-8 9 -8 15 -2 15 6 0 14 -5 17 -11z m3885 -31 c0 -6 -7 -5 -15 2 -8 7 -15 17
-15 22 0 6 7 5 15 -2 8 -7 15 -17 15 -22z m-633 -10 c-3 -8 -6 -5 -6 6 -1 11
2 17 5 13 3 -3 4 -12 1 -19z m-3492 -30 c5 -18 3 -28 -4 -28 -6 0 -8 6 -5 13
3 8 -2 20 -10 27 -9 7 -13 17 -10 22 9 13 21 -2 29 -34z m85 22 c0 -5 -5 -10
-11 -10 -5 0 -7 5 -4 10 3 6 8 10 11 10 2 0 4 -4 4 -10z m-26 -56 c5 -14 4
-15 -9 -4 -17 14 -19 20 -6 20 5 0 12 -7 15 -16z m3455 -46 c-2 -39 -3 -45 -7
-23 -6 29 -6 29 -13 -10 -7 -39 -7 -38 -6 13 0 28 5 52 9 52 5 0 6 5 3 10 -3
6 -1 10 4 10 7 0 10 -21 10 -52z m-2614 32 c3 -5 2 -10 -4 -10 -5 0 -13 5 -16
10 -3 6 -2 10 4 10 5 0 13 -4 16 -10z m915 -42 c0 -28 -3 -48 -7 -44 -8 8 -13
77 -6 89 9 16 13 4 13 -45z m110 48 c0 -3 -4 -8 -10 -11 -5 -3 -10 -1 -10 4 0
6 5 11 10 11 6 0 10 -2 10 -4z m1957 -18 c-3 -8 -6 -5 -6 6 -1 11 2 17 5 13 3
-3 4 -12 1 -19z m-3897 -9 c0 -6 -4 -7 -10 -4 -5 3 -10 11 -10 16 0 6 5 7 10
4 6 -3 10 -11 10 -16z m63 -4 c-7 -21 -13 -19 -13 6 0 11 4 18 10 14 5 -3 7
-12 3 -20z m1354 -12 c-3 -10 -5 -4 -5 12 0 17 2 24 5 18 2 -7 2 -21 0 -30z
m2753 25 c0 -8 -13 -13 -30 -13 -36 0 -37 3 -7 15 31 12 37 12 37 -2z m-4132
-33 c-3 -3 -9 2 -12 12 -6 14 -5 15 5 6 7 -7 10 -15 7 -18z m897 -67 c-4 -46
-11 -101 -15 -123 -7 -36 -8 -34 -9 28 -1 67 -1 68 -23 56 -20 -9 -19 -7 4 13
17 15 29 38 33 66 11 71 17 47 10 -40z m2973 20 c-3 -22 -4 -21 -20 7 l-17 30
-1 -35 -2 -35 -8 29 c-11 36 -4 49 21 43 13 -3 19 0 20 11 1 10 4 7 6 -5 2
-13 3 -33 1 -45z m-3884 -4 c5 -36 4 -38 -10 -19 -8 11 -11 21 -5 23 5 2 6 13
3 25 -3 12 -2 19 1 16 4 -3 9 -23 11 -45z m1383 4 c-3 -7 -5 -2 -5 12 0 14 2
19 5 13 2 -7 2 -19 0 -25z m1794 -51 c-7 -7 -9 2 -7 29 6 58 9 63 13 20 3 -21
0 -43 -6 -49z m-3138 58 c4 -8 2 -17 -3 -20 -6 -4 -10 -4 -10 -1 0 2 -3 11 -6
20 -3 9 -2 16 4 16 5 0 12 -7 15 -15z m1575 -41 c-6 -21 -13 -33 -15 -26 -5
13 16 76 23 69 2 -2 -2 -21 -8 -43z m2389 -26 c-3 -8 -6 -5 -6 6 -1 11 2 17 5
13 3 -3 4 -12 1 -19z m118 12 c3 -6 -1 -7 -9 -4 -18 7 -21 14 -7 14 6 0 13 -4
16 -10z m-4062 -25 c-7 -21 -12 -19 -10 4 0 11 5 18 9 15 4 -3 5 -11 1 -19z
m3025 -10 c-2 -26 -12 -32 -23 -15 -3 6 -2 10 4 10 6 0 8 7 5 15 -4 8 -1 15 5
15 6 0 10 -11 9 -25z m89 -7 c-3 -8 -6 -5 -6 6 -1 11 2 17 5 13 3 -3 4 -12 1
-19z m148 2 c3 -11 11 -20 16 -20 5 0 9 -7 9 -16 0 -10 -8 -6 -25 14 -27 32
-31 42 -16 42 5 0 13 -9 16 -20z m-3109 -37 c3 -29 2 -33 -5 -18 -11 22 -14
72 -5 62 3 -3 8 -23 10 -44z m2655 6 c-9 -23 -10 -22 -10 11 -1 23 2 31 9 24
7 -7 7 -19 1 -35z m-1274 9 c-3 -8 -6 -5 -6 6 -1 11 2 17 5 13 3 -3 4 -12 1
-19z m140 -25 c-3 -10 -5 -2 -5 17 0 19 2 27 5 18 2 -10 2 -26 0 -35z m53 36
c0 -5 -4 -8 -9 -4 -5 3 -12 -3 -14 -12 -4 -14 -5 -13 -6 5 -1 13 5 22 14 22 8
0 15 -5 15 -11z m1716 -31 c-7 -41 -13 -56 -19 -47 -8 9 6 89 15 89 7 0 8 -16
4 -42z m-1606 8 c0 -3 -4 -8 -10 -11 -5 -3 -10 -1 -10 4 0 6 5 11 10 11 6 0
10 -2 10 -4z m140 0 c0 -3 -4 -8 -10 -11 -5 -3 -10 -1 -10 4 0 6 5 11 10 11 6
0 10 -2 10 -4z m1 -50 c-6 -7 -7 -22 -4 -35 5 -21 4 -22 -15 -10 -11 7 -19 16
-16 20 2 4 -2 9 -8 12 -9 3 -7 9 7 20 22 17 51 12 36 -7z m-326 -33 c-9 -15
-13 -19 -10 -8 4 11 10 29 13 40 3 11 7 14 9 8 3 -7 -3 -24 -12 -40z m2175 27
c0 -5 -5 -10 -11 -10 -5 0 -7 5 -4 10 3 6 8 10 11 10 2 0 4 -4 4 -10z m-2675
-10 c-3 -5 -16 -15 -28 -21 -21 -10 -21 -9 2 10 25 23 36 27 26 11z m1886 -17
c-8 -15 -10 -15 -11 -2 0 17 10 32 18 25 2 -3 -1 -13 -7 -23z m-843 -49 c-13
-55 -13 -56 -18 -23 -7 39 -2 61 11 53 5 -3 9 5 9 17 0 12 3 20 6 17 3 -4 0
-32 -8 -64z m1223 29 c-10 -17 -10 -16 -11 3 0 23 13 41 18 25 2 -6 -1 -18 -7
-28z m-514 -5 c-3 -8 -6 -5 -6 6 -1 11 2 17 5 13 3 -3 4 -12 1 -19z m-581 -49
c-9 -19 -15 -26 -16 -17 0 23 22 75 26 62 3 -6 -2 -26 -10 -45z m-695 5 c-9
-28 -9 -29 -10 -3 -1 14 2 29 6 32 11 12 13 2 4 -29z m105 6 c8 0 14 -5 14
-10 0 -14 -51 -8 -67 7 -15 14 -17 27 -3 18 6 -3 10 -1 10 5 0 7 7 5 16 -4 8
-9 22 -16 30 -16z m233 -32 c-12 -63 -11 -64 19 -35 21 20 31 24 42 16 13 -9
13 -10 -1 -6 -16 5 -79 -49 -79 -68 0 -5 5 -4 12 3 18 18 30 14 17 -6 -6 -10
-19 -18 -28 -19 -9 0 -26 -3 -38 -6 -32 -8 -29 5 6 31 25 19 31 31 37 82 3 33
10 58 14 55 4 -3 4 -24 -1 -47z m91 44 c0 -5 -7 -17 -15 -28 -14 -18 -14 -17
-4 9 12 27 19 34 19 19z m940 -34 c0 -6 -7 -5 -15 2 -8 7 -15 17 -15 22 0 6 7
5 15 -2 8 -7 15 -17 15 -22z m-1397 7 c-3 -9 -8 -14 -10 -11 -3 3 -2 9 2 15 9
16 15 13 8 -4z m642 -10 c-39 -32 -58 -32 -22 0 15 14 33 25 40 25 7 -1 -1
-12 -18 -25z m1515 0 c-7 -8 -17 -12 -22 -9 -6 4 -5 10 3 15 22 14 33 10 19
-6z m-855 -5 c3 -5 1 -10 -4 -10 -6 0 -11 5 -11 10 0 6 2 10 4 10 3 0 8 -4 11
-10z m-1165 -25 c0 -2 -10 -10 -22 -16 -21 -11 -22 -11 -9 4 13 16 31 23 31
12z m1331 -47 c31 -43 17 -34 -21 15 -19 23 -26 36 -17 28 10 -8 27 -27 38
-43z m569 48 c0 -3 -4 -8 -10 -11 -5 -3 -10 -1 -10 4 0 6 5 11 10 11 6 0 10
-2 10 -4z m-1498 -54 c-22 -23 -43 -38 -46 -35 -9 9 -7 23 3 23 5 0 23 14 41
30 47 44 48 29 2 -18z m155 16 c-3 -8 -6 -5 -6 6 -1 11 2 17 5 13 3 -3 4 -12
1 -19z m553 -8 c0 -5 -5 -10 -11 -10 -5 0 -7 5 -4 10 3 6 8 10 11 10 2 0 4 -4
4 -10z m-600 -7 c0 -5 -9 -21 -20 -38 -14 -22 -20 -25 -20 -12 0 20 21 57 32
57 5 0 8 -3 8 -7z m1420 -23 c-8 -5 -17 -7 -19 -4 -3 3 1 9 9 14 8 5 17 7 19
4 3 -3 -1 -9 -9 -14z m-3340 0 c0 -5 -4 -10 -10 -10 -5 0 -10 5 -10 10 0 6 5
10 10 10 6 0 10 -4 10 -10z m1527 -32 c-3 -7 -5 -2 -5 12 0 14 2 19 5 13 2 -7
2 -19 0 -25z m753 26 c0 -3 -23 -28 -50 -56 -31 -31 -49 -57 -45 -66 4 -10 0
-12 -11 -8 -9 4 -23 1 -31 -5 -19 -17 -27 -4 -8 14 8 9 15 22 15 29 0 7 17 24
37 37 28 18 33 25 22 33 -11 8 -11 9 3 5 9 -3 24 1 35 8 19 15 33 19 33 9z
m-310 -19 c-7 -9 -15 -13 -19 -10 -3 3 1 10 9 15 21 14 24 12 10 -5z m-461
-69 c1 -42 -5 -29 -12 24 -4 30 -3 38 3 25 5 -11 9 -33 9 -49z m-314 13 c9
-17 14 -33 11 -36 -4 -4 -36 49 -36 62 0 13 11 2 25 -26z m-100 -72 c-4 -15
-13 -31 -21 -38 -11 -9 -11 -6 1 17 8 16 15 35 15 43 0 8 2 12 5 9 4 -3 3 -17
0 -31z m1020 -29 c-1 -18 -22 -35 -47 -37 -3 -1 6 13 20 29 15 17 27 30 28 30
0 0 0 -10 -1 -22z m155 -10 c0 -6 -6 -5 -15 2 -8 7 -15 14 -15 16 0 2 7 1 15
-2 8 -4 15 -11 15 -16z m207 -15 c-3 -10 -5 -4 -5 12 0 17 2 24 5 18 2 -7 2
-21 0 -30z m-593 -48 c5 -19 4 -26 -2 -20 -5 6 -13 24 -16 40 -5 19 -4 26 2
20 5 -5 13 -23 16 -40z m161 35 c-3 -5 -15 -10 -26 -10 -11 0 -17 5 -14 10 3
6 15 10 26 10 11 0 17 -4 14 -10z m995 6 c0 -3 -4 -8 -10 -11 -5 -3 -10 -1
-10 4 0 6 5 11 10 11 6 0 10 -2 10 -4z m-35 -16 c-3 -5 -21 -10 -38 -9 -27 0
-29 2 -12 9 28 12 57 12 50 0z m-945 -24 c0 -2 -7 -9 -15 -16 -13 -11 -14 -10
-9 4 5 14 24 23 24 12z m866 -33 c-10 -10 -19 5 -10 18 6 11 8 11 12 0 2 -7 1
-15 -2 -18z m-706 -109 c0 -2 -9 0 -20 6 -11 6 -20 13 -20 16 0 2 9 0 20 -6
11 -6 20 -13 20 -16z"/>
<path d="M5915 3019 c-4 -6 -5 -13 -2 -16 7 -7 27 6 27 18 0 12 -17 12 -25 -2z"/>
<path d="M1820 2339 c0 -5 5 -7 10 -4 6 3 10 8 10 11 0 2 -4 4 -10 4 -5 0 -10
-5 -10 -11z"/>
<path d="M3299 2304 c-13 -15 -18 -25 -10 -22 13 4 49 48 39 48 -2 0 -15 -12
-29 -26z"/>
<path d="M3293 2254 c-5 -13 -8 -13 -15 -2 -8 10 -9 10 -5 -2 2 -8 0 -26 -5
-39 -7 -20 -6 -22 6 -12 14 12 39 71 30 71 -2 0 -7 -7 -11 -16z"/>
<path d="M3156 2164 c-9 -24 -2 -26 12 -4 7 11 8 20 3 20 -5 0 -12 -7 -15 -16z"/>
<path d="M2346 5033 c-27 -26 -43 -49 -37 -51 19 -6 141 31 141 43 -1 13 -36
55 -47 55 -4 0 -30 -21 -57 -47z"/>
<path d="M1310 4610 c0 -5 5 -10 11 -10 5 0 7 5 4 10 -3 6 -8 10 -11 10 -2 0
-4 -4 -4 -10z"/>
<path d="M5310 4601 c0 -7 -4 -9 -10 -6 -5 3 -10 3 -10 -2 0 -11 20 -40 20
-29 0 5 6 3 14 -3 23 -19 28 4 6 29 -11 13 -20 18 -20 11z"/>
<path d="M4986 4515 c4 -8 8 -15 10 -15 2 0 4 7 4 15 0 8 -4 15 -10 15 -5 0
-7 -7 -4 -15z"/>
<path d="M4891 4511 c-12 -8 -9 -11 13 -17 16 -4 32 -2 39 5 8 8 8 11 0 11 -6
0 -17 2 -25 5 -7 3 -20 1 -27 -4z"/>
<path d="M4815 4499 c-4 -6 -5 -12 -2 -15 2 -3 7 2 10 11 7 17 1 20 -8 4z"/>
<path d="M4992 4466 c7 -8 17 -12 22 -9 4 3 2 9 -5 14 -22 13 -31 11 -17 -5z"/>
<path d="M3671 4383 c7 -12 15 -20 18 -17 3 2 -3 12 -13 22 -17 16 -18 16 -5
-5z"/>
<path d="M3643 4335 c0 -11 4 -12 14 -4 7 6 13 13 13 15 0 2 -6 4 -13 4 -8 0
-14 -7 -14 -15z"/>
<path d="M4365 4120 c-3 -5 -1 -10 4 -10 6 0 11 5 11 10 0 6 -2 10 -4 10 -3 0
-8 -4 -11 -10z"/>
<path d="M3690 4109 c0 -5 5 -7 10 -4 6 3 10 8 10 11 0 2 -4 4 -10 4 -5 0 -10
-5 -10 -11z"/>
<path d="M4341 4084 c0 -11 3 -14 6 -6 3 7 2 16 -1 19 -3 4 -6 -2 -5 -13z"/>
<path d="M4404 4023 c-6 -10 -9 -36 -6 -58 4 -36 3 -38 -12 -26 -14 12 -16 11
-16 -7 0 -32 18 -36 40 -10 11 13 18 16 15 7 -6 -17 30 -106 38 -92 7 11 0 71
-12 112 -6 18 -10 36 -9 40 6 47 -17 67 -38 34z"/>
<path d="M5220 4006 c0 -7 9 -16 20 -19 11 -3 20 -4 20 -3 0 1 -9 9 -20 19
-15 13 -20 14 -20 3z"/>
<path d="M3460 3995 c6 -8 10 -18 7 -22 -3 -4 1 -14 9 -21 12 -11 15 -10 20 3
4 10 -2 24 -14 36 -25 22 -40 26 -22 4z"/>
<path d="M4370 3981 c0 -12 5 -21 10 -21 6 0 10 6 10 14 0 8 -4 18 -10 21 -5
3 -10 -3 -10 -14z"/>
<path d="M5230 3962 c0 -12 19 -26 26 -19 2 2 -2 10 -11 17 -9 8 -15 8 -15 2z"/>
<path d="M3516 3943 c-4 -4 -19 -7 -33 -8 -28 0 -42 -19 -21 -28 8 -2 27 6 43
19 17 13 27 24 24 24 -3 0 -9 -3 -13 -7z"/>
<path d="M5321 3936 c-8 -9 -11 -19 -7 -23 3 -3 6 0 6 7 0 8 13 2 31 -16 27
-24 30 -26 20 -6 -6 12 -16 22 -21 22 -5 0 -10 7 -12 17 -3 15 -4 15 -17 -1z"/>
<path d="M4115 3910 c-3 -5 1 -10 9 -10 9 0 16 5 16 10 0 6 -4 10 -9 10 -6 0
-13 -4 -16 -10z"/>
<path d="M4550 3865 c0 -11 7 -29 15 -39 12 -16 18 -17 27 -8 10 10 6 18 -15
39 -24 25 -27 26 -27 8z"/>
<path d="M5575 3870 c-3 -6 1 -7 9 -4 18 7 21 14 7 14 -6 0 -13 -4 -16 -10z"/>
<path d="M4144 3859 c-3 -6 -1 -16 5 -22 8 -8 11 -5 11 11 0 24 -5 28 -16 11z"/>
<path d="M4181 3830 c-1 -33 2 -41 9 -30 9 13 11 13 20 0 8 -13 10 -13 10 2 0
9 -6 23 -13 30 -8 7 -16 20 -20 28 -3 8 -6 -5 -6 -30z"/>
<path d="M4397 3850 c-3 -11 -1 -23 4 -26 5 -3 9 6 9 20 0 31 -6 34 -13 6z"/>
<path d="M4492 3825 c0 -16 2 -22 5 -12 2 9 2 23 0 30 -3 6 -5 -1 -5 -18z"/>
<path d="M4347 3813 c-4 -3 -7 -18 -6 -32 1 -26 1 -25 10 3 9 31 7 41 -4 29z"/>
<path d="M4298 3787 c-3 -14 -1 -32 3 -39 9 -14 9 -14 13 19 4 33 -10 50 -16
20z"/>
<path d="M4606 3785 c-3 -9 0 -15 9 -15 8 0 15 7 15 15 0 8 -4 15 -9 15 -5 0
-11 -7 -15 -15z"/>
<path d="M4484 3776 c-10 -25 0 -38 13 -17 8 13 9 22 3 26 -6 4 -13 -1 -16 -9z"/>
<path d="M4121 3758 c0 -7 4 -22 8 -33 8 -19 8 -19 15 2 8 24 1 43 -15 43 -5
0 -9 -6 -8 -12z"/>
<path d="M4425 3750 c3 -5 8 -10 11 -10 2 0 4 5 4 10 0 6 -5 10 -11 10 -5 0
-7 -4 -4 -10z"/>
<path d="M4551 3748 c0 -9 -4 -25 -7 -35 -5 -14 -4 -15 5 -7 7 7 11 22 8 35
-2 13 -5 16 -6 7z"/>
<path d="M3207 3743 c-4 -3 -7 -13 -7 -21 0 -18 13 -7 16 13 2 17 1 18 -9 8z"/>
<path d="M3230 3740 c0 -5 7 -10 15 -10 8 0 15 5 15 10 0 6 -7 10 -15 10 -8 0
-15 -4 -15 -10z"/>
<path d="M5523 3695 c0 -14 3 -25 7 -25 5 0 17 -3 27 -7 16 -6 17 -5 3 12 -9
11 -10 16 -2 11 18 -11 14 5 -5 20 -26 19 -30 17 -30 -11z"/>
<path d="M3225 3700 c-19 -8 -19 -9 2 -9 12 -1 25 4 28 9 7 12 -2 12 -30 0z"/>
<path d="M3177 3672 c4 -22 2 -24 -7 -12 -8 10 -10 11 -8 2 5 -20 21 -16 29 6
5 13 3 22 -5 25 -9 4 -12 -3 -9 -21z"/>
<path d="M3994 3646 c-4 -10 -2 -21 3 -25 6 -3 13 -15 16 -26 3 -14 5 -11 6
10 0 17 -3 37 -9 45 -8 12 -10 12 -16 -4z"/>
<path d="M4070 3641 c0 -11 5 -23 10 -26 6 -4 10 5 10 19 0 14 -4 26 -10 26
-5 0 -10 -9 -10 -19z"/>
<path d="M5571 3616 c2 -2 15 -9 29 -15 24 -11 24 -11 6 3 -16 13 -49 24 -35
12z"/>
<path d="M5760 3616 c0 -2 7 -9 15 -16 13 -11 14 -10 9 4 -5 14 -24 23 -24 12z"/>
<path d="M5724 3585 c11 -8 22 -12 25 -9 6 6 -19 24 -34 24 -5 -1 -1 -7 9 -15z"/>
<path d="M3811 3504 c0 -11 3 -14 6 -6 3 7 2 16 -1 19 -3 4 -6 -2 -5 -13z"/>
<path d="M5765 3490 c-3 -5 -1 -10 5 -10 6 0 23 -11 38 -25 41 -38 50 -30 11
10 -36 37 -44 41 -54 25z"/>
<path d="M6080 3485 c0 -7 10 -15 22 -19 17 -4 20 -8 11 -17 -8 -8 -16 -8 -31
0 -18 10 -19 9 -9 -13 7 -14 15 -22 19 -20 4 3 16 -4 28 -16 11 -11 25 -20 31
-20 8 0 8 -4 -1 -15 -6 -8 -9 -23 -5 -35 3 -11 2 -20 -4 -20 -5 0 -12 13 -16
30 -6 27 -8 28 -22 15 -13 -13 -13 -18 -1 -32 31 -38 57 -60 72 -60 21 0 21
23 -1 36 -10 5 -15 13 -11 17 4 3 3 15 -3 25 -7 15 -6 19 6 19 16 0 20 27 6
49 -5 7 -13 11 -18 8 -6 -4 -19 1 -29 9 -10 9 -14 13 -9 10 6 -2 12 5 13 17 1
15 -7 26 -23 34 -20 9 -25 8 -25 -2z"/>
<path d="M3766 3453 c-6 -14 -5 -15 5 -6 7 7 10 15 7 18 -3 3 -9 -2 -12 -12z"/>
<path d="M5740 3436 c19 -20 48 -50 64 -66 15 -16 32 -28 36 -25 4 2 -12 25
-36 50 -24 25 -43 51 -41 58 1 7 -11 13 -28 15 l-30 4 35 -36z"/>
<path d="M3572 3423 c-20 -21 -30 -39 -23 -41 15 -5 32 9 54 47 24 42 12 39
-31 -6z"/>
<path d="M6150 3445 c0 -8 4 -15 10 -15 5 0 7 7 4 15 -4 8 -8 15 -10 15 -2 0
-4 -7 -4 -15z"/>
<path d="M5856 3406 c3 -8 21 -27 40 -41 20 -15 31 -20 28 -11 -3 8 -21 27
-40 41 -20 15 -31 20 -28 11z"/>
<path d="M5910 3412 c0 -10 22 -32 32 -32 5 0 3 9 -4 20 -13 20 -28 27 -28 12z"/>
<path d="M3410 3381 c-6 -12 -7 -21 -1 -21 10 0 24 30 17 37 -2 3 -9 -5 -16
-16z"/>
<path d="M6083 3375 c0 -8 4 -12 9 -9 4 3 8 9 8 15 0 5 -4 9 -8 9 -5 0 -9 -7
-9 -15z"/>
<path d="M6027 3335 c10 -13 24 -25 32 -25 8 0 3 10 -13 25 -34 32 -42 32 -19
0z"/>
<path d="M1408 3313 c7 -3 16 -2 19 1 4 3 -2 6 -13 5 -11 0 -14 -3 -6 -6z"/>
<path d="M1381 3200 c1 -27 6 -47 11 -44 13 8 10 -30 -4 -44 -9 -9 -9 -15 0
-24 13 -13 18 -4 25 52 6 38 -11 110 -25 110 -4 0 -8 -22 -7 -50z"/>
<path d="M1421 3224 c0 -11 3 -14 6 -6 3 7 2 16 -1 19 -3 4 -6 -2 -5 -13z"/>
<path d="M1555 3210 c-3 -5 -1 -10 4 -10 6 0 11 5 11 10 0 6 -2 10 -4 10 -3 0
-8 -4 -11 -10z"/>
<path d="M3340 3205 c-14 -8 -37 -19 -52 -25 -31 -11 -36 -25 -12 -34 10 -4
13 -2 8 6 -4 7 -3 8 5 4 19 -12 49 4 65 35 8 16 14 29 13 29 -1 0 -13 -7 -27
-15z"/>
<path d="M3431 3188 c-9 -23 -6 -36 4 -26 8 7 15 48 9 48 -3 0 -8 -10 -13 -22z"/>
<path d="M3384 3171 c-24 -19 -54 -72 -54 -95 0 -13 4 -13 30 2 21 12 34 29
41 55 13 50 9 60 -17 38z"/>
<path d="M4114 3138 l-19 -21 28 18 c28 18 33 25 19 25 -5 0 -17 -10 -28 -22z"/>
<path d="M3298 3134 c-16 -8 -28 -19 -28 -24 0 -6 -7 -10 -15 -10 -8 0 -15 -5
-15 -11 0 -5 5 -7 12 -3 8 5 9 0 5 -15 -8 -33 11 -21 50 32 37 50 35 55 -9 31z"/>
<path d="M4170 3140 c-8 -5 -12 -12 -9 -15 4 -3 12 1 19 10 14 17 11 19 -10 5z"/>
<path d="M1791 3114 c0 -11 3 -14 6 -6 3 7 2 16 -1 19 -3 4 -6 -2 -5 -13z"/>
<path d="M4065 3120 c-3 -5 -2 -10 4 -10 5 0 13 5 16 10 3 6 2 10 -4 10 -5 0
-13 -4 -16 -10z"/>
<path d="M1585 3112 c-12 -8 -16 -62 -5 -62 7 0 23 60 17 66 -1 2 -7 0 -12 -4z"/>
<path d="M4140 3099 c0 -5 5 -7 10 -4 6 3 10 8 10 11 0 2 -4 4 -10 4 -5 0 -10
-5 -10 -11z"/>
<path d="M3353 3060 c-18 -11 -33 -24 -33 -29 0 -5 -3 -17 -7 -26 -11 -31 33
1 56 40 11 19 19 35 18 35 -1 0 -17 -9 -34 -20z"/>
<path d="M4550 3063 c-8 -2 -22 -7 -30 -10 -8 -4 -18 -6 -22 -5 -3 1 -11 -4
-16 -11 -8 -10 -2 -12 28 -10 28 1 42 -3 48 -14 6 -9 14 -13 22 -8 9 6 9 9 -1
16 -9 5 -2 7 18 4 18 -2 35 1 38 6 4 5 0 10 -7 11 -7 0 -17 2 -23 3 -5 2 -18
3 -28 4 -10 0 -15 6 -12 11 3 6 5 10 3 9 -2 0 -10 -3 -18 -6z"/>
<path d="M4755 3060 c-3 -5 -2 -10 4 -10 5 0 13 5 16 10 3 6 2 10 -4 10 -5 0
-13 -4 -16 -10z"/>
<path d="M4440 3051 c0 -5 5 -13 10 -16 6 -3 10 -2 10 4 0 5 -4 13 -10 16 -5
3 -10 2 -10 -4z"/>
<path d="M4700 3052 c0 -7 -12 -12 -26 -12 -16 0 -23 -4 -18 -11 3 -6 0 -16
-7 -21 -11 -8 -10 -9 3 -4 10 3 20 1 23 -4 10 -17 42 7 40 29 -1 22 -15 42
-15 23z m-3 -28 c-3 -3 -12 -4 -19 -1 -8 3 -5 6 6 6 11 1 17 -2 13 -5z"/>
<path d="M4810 3045 c-7 -8 -21 -15 -31 -15 -11 0 -19 -5 -19 -11 0 -13 53 -2
58 12 5 13 55 0 69 -18 10 -13 8 -19 -9 -33 -21 -17 -21 -17 10 -12 17 2 30 9
29 14 -1 6 4 13 12 16 8 3 11 0 7 -7 -4 -6 -3 -11 3 -11 5 0 12 6 15 13 3 6 3
2 1 -10 -3 -12 -1 -24 5 -28 5 -3 10 1 10 9 0 10 9 16 25 16 14 0 25 4 25 9 0
6 -9 8 -20 6 -11 -2 -18 0 -16 4 13 20 -34 43 -88 43 -31 1 -56 5 -56 9 0 14
-16 10 -30 -6z m120 -25 c0 -5 -4 -10 -10 -10 -5 0 -10 5 -10 10 0 6 5 10 10
10 6 0 10 -4 10 -10z"/>
<path d="M5220 3052 c0 -4 10 -9 22 -9 18 -2 20 0 8 7 -18 12 -30 13 -30 2z"/>
<path d="M1543 3001 c-16 -50 -17 -91 -2 -91 6 0 10 10 9 23 -3 36 -1 49 9 43
5 -3 11 3 14 14 3 11 1 20 -3 20 -5 0 -10 7 -12 16 -2 8 -9 -3 -15 -25z"/>
<path d="M5004 3025 c-12 -9 -14 -14 -6 -15 7 0 20 7 28 15 20 19 4 20 -22 0z"/>
<path d="M5052 3019 c-37 -14 -16 -28 23 -16 33 10 38 19 12 23 -7 1 -22 -2
-35 -7z"/>
<path d="M4735 3010 c-3 -5 -1 -10 4 -10 6 0 11 5 11 10 0 6 -2 10 -4 10 -3 0
-8 -4 -11 -10z"/>
<path d="M4846 3005 c-3 -9 -12 -12 -23 -8 -15 6 -16 5 -3 -9 10 -11 20 -13
32 -7 24 13 30 26 14 32 -8 3 -17 -1 -20 -8z"/>
<path d="M3286 3001 c-4 -7 -5 -15 -2 -18 9 -9 19 4 14 18 -4 11 -6 11 -12 0z"/>
<path d="M1705 2979 c-4 -12 -3 -25 2 -30 5 -5 10 4 11 21 3 35 -4 39 -13 9z"/>
<path d="M1760 2985 c0 -8 4 -15 10 -15 5 0 7 7 4 15 -4 8 -8 15 -10 15 -2 0
-4 -7 -4 -15z"/>
<path d="M2320 2970 c-1 -3 -4 -25 -5 -50 -3 -51 -23 -111 -25 -75 -2 42 -18
-10 -22 -72 -4 -60 -3 -63 19 -63 13 0 23 6 23 14 0 8 3 21 6 30 5 12 0 16
-17 17 -24 0 -24 0 -2 9 18 7 22 20 28 83 6 62 3 124 -5 107z"/>
<path d="M1777 2954 c-3 -3 -3 -13 0 -22 4 -9 2 -13 -4 -9 -5 3 -9 -8 -9 -28
1 -34 16 -39 16 -4 0 21 16 26 23 7 3 -8 6 -7 6 4 1 9 -4 20 -10 23 -6 4 -8
13 -5 21 5 14 -5 19 -17 8z"/>
<path d="M1887 2943 c-4 -3 -7 -11 -7 -17 0 -6 5 -5 12 2 6 6 9 14 7 17 -3 3
-9 2 -12 -2z"/>
<path d="M4951 2894 c-7 -17 -17 -24 -26 -20 -8 3 -15 1 -15 -4 0 -6 -6 -10
-13 -10 -9 0 -13 -10 -12 -27 1 -16 0 -20 -2 -10 -2 9 -10 17 -18 17 -21 0
-27 -31 -10 -56 9 -13 11 -24 5 -24 -5 0 -10 -6 -10 -13 0 -7 -9 -23 -20 -35
-11 -12 -20 -29 -20 -39 0 -15 2 -16 11 -3 8 12 9 10 5 -10 -3 -14 -6 -45 -7
-70 -1 -25 -3 -37 -6 -27 -4 14 -8 16 -19 6 -21 -17 -7 -29 32 -29 21 0 33 -4
29 -10 -13 -21 -14 -53 -3 -106 6 -32 14 -50 18 -43 11 17 33 -28 27 -53 -3
-11 -1 -32 5 -47 5 -14 10 -39 11 -56 2 -18 7 -29 15 -27 7 1 23 -3 35 -8 20
-10 21 -10 4 4 -17 13 -18 16 -2 47 12 22 16 47 13 81 -6 53 1 54 18 5 8 -24
7 -40 -4 -69 -19 -48 -11 -73 18 -58 12 6 26 22 32 36 9 19 8 28 -7 44 -20 22
-8 28 15 8 8 -7 6 -2 -3 12 -10 14 -25 41 -35 60 -9 19 -24 40 -32 47 -20 17
-10 16 34 -2 40 -17 47 -8 16 20 -11 10 -20 15 -20 12 0 -3 -10 4 -23 16 -13
12 -22 27 -20 33 2 6 -9 25 -25 43 -26 30 -31 32 -53 22 l-24 -12 25 20 c14
11 26 16 28 11 2 -5 19 -19 38 -30 19 -12 31 -27 28 -32 -4 -6 -3 -8 3 -5 9 6
36 -18 95 -85 18 -21 39 -38 47 -38 7 0 11 -6 8 -15 -4 -8 -2 -17 2 -20 5 -2
12 6 15 20 4 14 11 25 16 25 24 0 8 41 -22 56 -18 9 -41 23 -50 32 -12 10 -18
11 -18 3 0 -7 -5 -9 -10 -6 -6 4 -8 10 -5 14 2 5 -13 29 -35 54 -22 25 -40 52
-40 61 0 9 -7 16 -16 16 -8 0 -12 5 -9 10 4 6 1 9 -7 8 -7 -2 -17 -13 -23 -26
-8 -20 -10 -16 -10 27 0 41 -5 55 -29 80 -17 17 -24 31 -18 31 7 0 12 8 13 18
0 9 11 -6 23 -34 13 -28 29 -55 36 -59 9 -5 11 -4 6 3 -4 7 -2 12 3 12 6 0 11
-7 11 -15 0 -9 7 -18 15 -21 8 -4 15 -14 15 -23 0 -17 24 -57 59 -101 18 -23
21 -24 36 -9 15 14 13 19 -17 53 -18 21 -33 41 -33 44 0 17 -48 72 -57 66 -7
-4 -8 -2 -4 5 4 6 0 18 -8 27 -9 8 -16 20 -16 25 0 18 17 8 40 -23 13 -18 36
-42 50 -53 14 -11 37 -32 53 -48 30 -33 35 -29 11 8 -9 14 -24 25 -33 25 -14
0 -14 2 -1 11 13 10 13 10 -1 6 -10 -3 -22 6 -34 25 -11 19 -13 28 -5 23 10
-6 12 -1 7 20 l-5 29 19 -25 c10 -13 19 -20 19 -15 0 5 11 -1 25 -14 14 -13
27 -21 31 -18 7 8 -85 84 -97 80 -11 -3 -24 26 -16 34 3 3 14 -4 25 -16 17
-18 24 -20 41 -11 20 11 29 24 14 19 -5 -2 -9 0 -10 5 -2 4 -15 19 -30 32 -35
31 -16 33 23 3 l29 -23 -30 36 c-16 20 -32 36 -35 36 -3 1 -22 1 -44 2 -29 1
-37 4 -32 16 10 26 -10 16 -23 -11z m-71 -229 c0 -5 -5 -3 -10 5 -5 8 -10 20
-10 25 0 6 5 3 10 -5 5 -8 10 -19 10 -25z m50 -356 c0 -5 -4 -9 -10 -9 -5 0
-10 7 -10 16 0 8 5 12 10 9 6 -3 10 -10 10 -16z"/>
<path d="M1830 2900 c0 -5 5 -10 10 -10 6 0 10 5 10 10 0 6 -4 10 -10 10 -5 0
-10 -4 -10 -10z"/>
<path d="M1786 2863 c-2 -10 -8 -29 -11 -42 -5 -15 -3 -21 3 -17 5 3 13 -1 16
-10 9 -24 7 -28 -9 -14 -12 10 -16 8 -25 -15 -13 -34 -13 -42 3 -48 9 -3 9 -7
-1 -20 -9 -10 -10 -22 -5 -32 8 -14 12 -13 37 6 26 20 26 22 11 45 -17 26 -13
44 11 44 16 0 19 37 4 60 -5 8 -10 11 -10 5 0 -5 -5 -3 -10 5 -5 8 -7 23 -4
33 3 9 3 17 0 17 -2 0 -7 -8 -10 -17z"/>
<path d="M1824 2864 c3 -9 6 -22 6 -30 0 -8 5 -14 11 -14 7 0 9 10 7 25 -3 13
-1 22 3 19 5 -3 9 0 9 5 0 6 -9 11 -21 11 -15 0 -19 -4 -15 -16z"/>
<path d="M2252 2840 c0 -14 2 -19 5 -12 2 6 2 18 0 25 -3 6 -5 1 -5 -13z"/>
<path d="M2561 2823 c-14 -48 -13 -66 1 -33 11 27 19 70 13 70 -2 0 -9 -17
-14 -37z"/>
<path d="M5590 2830 c-13 -9 -13 -10 0 -11 10 0 9 -3 -5 -10 -19 -9 -18 -9 3
-5 14 3 22 -1 22 -10 0 -8 5 -14 10 -14 15 0 12 16 -5 30 -8 7 -12 16 -9 21 7
11 3 11 -16 -1z"/>
<path d="M1645 2820 c3 -5 8 -10 11 -10 2 0 4 5 4 10 0 6 -5 10 -11 10 -5 0
-7 -4 -4 -10z"/>
<path d="M4801 2775 c-1 -33 2 -55 8 -55 6 0 11 9 11 21 0 13 4 18 12 13 8 -5
9 0 4 17 -5 13 -8 32 -9 42 -1 9 -6 17 -12 17 -7 0 -12 -23 -14 -55z"/>
<path d="M1390 2810 c0 -5 7 -7 15 -4 8 4 15 8 15 10 0 2 -7 4 -15 4 -8 0 -15
-4 -15 -10z"/>
<path d="M2617 2805 c3 -8 9 -12 14 -9 12 7 11 11 -5 17 -10 4 -13 1 -9 -8z"/>
<path d="M4757 2807 c-4 -10 -7 -26 -7 -35 1 -15 2 -15 11 1 6 10 9 25 7 35
-3 16 -4 15 -11 -1z"/>
<path d="M2245 2787 c4 -12 2 -34 -3 -47 -5 -14 -5 -36 -1 -50 7 -24 7 -24 8
5 1 17 4 49 7 73 4 28 2 42 -5 42 -7 0 -9 -9 -6 -23z"/>
<path d="M1841 2754 c-16 -56 -14 -60 13 -35 25 23 28 43 9 62 -8 8 -14 1 -22
-27z"/>
<path d="M2350 2770 c0 -10 -7 -23 -16 -28 -15 -8 -15 -10 0 -15 10 -4 15 -3
12 2 -3 5 1 14 9 21 17 14 20 40 5 40 -5 0 -10 -9 -10 -20z"/>
<path d="M3223 2729 c-13 -28 -23 -65 -23 -82 0 -22 -3 -28 -9 -18 -6 9 -10 3
-13 -22 -7 -61 3 -61 28 0 13 32 22 63 20 68 -2 6 1 19 6 30 8 18 8 18 4 -2
-6 -31 0 -29 18 9 9 17 12 34 8 37 -5 3 -11 12 -13 18 -2 7 -14 -10 -26 -38z"/>
<path d="M4632 2745 c0 -16 2 -22 5 -12 2 9 2 23 0 30 -3 6 -5 -1 -5 -18z"/>
<path d="M4766 2752 c-4 -13 -4 -58 0 -100 7 -74 8 -76 20 -47 16 36 18 82 4
90 -6 4 -8 10 -6 14 3 4 2 21 -3 37 -8 28 -8 28 -15 6z"/>
<path d="M2510 2720 c0 -11 2 -20 4 -20 2 0 6 9 9 20 3 11 1 20 -4 20 -5 0 -9
-9 -9 -20z"/>
<path d="M5130 2735 c0 -3 11 -18 25 -33 14 -15 25 -22 25 -16 0 5 -9 20 -20
32 -21 22 -30 27 -30 17z"/>
<path d="M5080 2711 c0 -8 -6 -11 -15 -7 -8 3 -15 1 -15 -4 0 -9 13 -14 31
-12 4 1 17 -10 30 -24 23 -24 31 -44 30 -76 0 -10 9 -24 21 -32 15 -10 18 -20
13 -37 -6 -18 -4 -21 9 -16 10 4 15 3 11 -3 -3 -6 -2 -10 4 -10 5 0 11 5 13
10 2 6 12 3 23 -7 20 -19 72 -45 113 -58 39 -12 24 2 -35 30 -32 16 -77 45
-100 67 -24 21 -47 38 -52 38 -5 0 -7 17 -5 38 3 34 -1 43 -36 77 -22 22 -40
33 -40 26z"/>
<path d="M2320 2699 c0 -3 8 -14 19 -23 18 -16 19 -16 23 6 3 19 0 23 -19 23
-13 0 -23 -3 -23 -6z"/>
<path d="M4740 2675 c0 -25 -4 -35 -16 -35 -8 0 -12 4 -9 10 3 5 0 7 -8 4 -8
-3 -18 -15 -22 -27 -6 -21 -6 -21 -14 -3 -7 19 -8 18 -14 -4 -3 -13 -2 -27 4
-31 6 -4 2 -20 -12 -43 -14 -25 -18 -40 -12 -44 6 -4 13 -18 15 -32 2 -18 11
0 33 64 28 82 31 87 39 63 16 -43 22 -31 24 43 1 39 0 70 -3 70 -3 0 -5 -16
-5 -35z"/>
<path d="M3160 2692 c0 -4 4 -13 9 -20 7 -11 9 -11 14 1 3 9 -1 18 -9 21 -8 3
-14 2 -14 -2z"/>
<path d="M1461 2674 c0 -11 3 -14 6 -6 3 7 2 16 -1 19 -3 4 -6 -2 -5 -13z"/>
<path d="M2177 2683 c-12 -12 -7 -20 18 -31 35 -16 37 -15 26 7 -6 10 -8 21
-6 25 3 3 -1 2 -7 -4 -15 -13 -31 -13 -23 0 7 11 2 13 -8 3z"/>
<path d="M2425 2670 c-3 -5 1 -10 9 -10 9 0 16 5 16 10 0 6 -4 10 -9 10 -6 0
-13 -4 -16 -10z"/>
<path d="M2825 2610 c-16 -31 -12 -39 8 -17 11 11 19 47 11 47 -2 0 -10 -13
-19 -30z"/>
<path d="M5225 2611 c11 -12 29 -27 40 -33 l20 -10 -20 18 c-11 11 -29 26 -40
34 -20 15 -20 15 0 -9z"/>
<path d="M3607 2581 c-4 -17 -3 -21 5 -13 5 5 8 16 6 23 -3 8 -7 3 -11 -10z"/>
<path d="M5180 2585 c0 -9 6 -15 13 -13 6 1 23 -4 35 -11 39 -21 36 -5 -3 18
-43 25 -45 25 -45 6z"/>
<path d="M3130 2570 c0 -11 5 -20 10 -20 6 0 10 9 10 20 0 11 -4 20 -10 20 -5
0 -10 -9 -10 -20z"/>
<path d="M4606 2553 c-6 -14 -5 -15 5 -6 7 7 10 15 7 18 -3 3 -9 -2 -12 -12z"/>
<path d="M3012 2539 c-7 -11 -10 -24 -7 -29 4 -6 0 -10 -7 -10 -19 -1 -58 -84
-51 -110 5 -19 8 -17 32 17 23 32 58 140 48 149 -1 2 -8 -6 -15 -17z m-30
-101 c-7 -7 -12 -8 -12 -2 0 14 12 26 19 19 2 -3 -1 -11 -7 -17z"/>
<path d="M4727 2543 c-14 -50 -18 -95 -8 -88 6 3 11 19 11 35 0 16 5 32 10 35
13 8 13 35 1 35 -5 0 -12 -8 -14 -17z"/>
<path d="M3585 2513 c-28 -42 -33 -62 -10 -43 9 7 19 10 23 6 4 -4 0 -13 -8
-19 -29 -22 -50 -61 -50 -95 0 -18 4 -31 9 -27 5 3 11 -5 13 -17 5 -34 71 -38
104 -7 28 26 29 44 8 109 -12 38 -20 47 -32 43 -10 -4 -20 -11 -24 -17 -4 -6
-10 -7 -14 -4 -3 4 3 22 15 41 42 68 11 96 -34 30z m12 -115 c-3 -8 -6 -5 -6
6 -1 11 2 17 5 13 3 -3 4 -12 1 -19z m-10 -40 c-3 -8 -6 -5 -6 6 -1 11 2 17 5
13 3 -3 4 -12 1 -19z m41 -29 c-6 -16 -12 -28 -14 -26 -5 5 13 57 20 57 3 0 0
-14 -6 -31z"/>
<path d="M4701 2524 c0 -11 3 -14 6 -6 3 7 2 16 -1 19 -3 4 -6 -2 -5 -13z"/>
<path d="M4769 2533 c0 -4 -3 -17 -5 -28 -2 -11 -7 -42 -10 -70 -3 -27 -10
-55 -16 -62 -11 -14 -3 -92 11 -106 7 -7 9 10 6 52 -2 33 -2 61 0 61 1 0 17
-24 34 -54 30 -53 62 -88 48 -53 -3 10 -2 17 3 17 5 0 11 -8 13 -17 3 -10 5 2
6 27 0 31 -7 57 -24 85 -13 22 -31 54 -40 70 -15 29 -15 29 16 -5 28 -32 30
-33 24 -10 -5 14 -8 37 -9 53 -1 15 -5 27 -11 28 -5 1 -18 5 -27 10 -10 5 -18
6 -19 2z"/>
<path d="M5240 2525 c7 -9 15 -13 18 -10 3 3 13 -2 22 -10 16 -14 18 -14 24 2
4 9 4 14 0 11 -3 -4 -19 -1 -35 7 -36 19 -45 19 -29 0z"/>
<path d="M3041 2488 c-7 -24 -15 -50 -18 -58 -3 -8 2 -6 10 6 15 20 34 94 24
94 -2 0 -10 -19 -16 -42z"/>
<path d="M3437 2521 c2 -2 -1 -9 -5 -15 -11 -14 11 -57 24 -48 6 4 16 16 23
27 11 19 12 19 8 -5 -2 -14 -8 -33 -12 -42 -11 -28 18 -22 47 10 14 15 33 39
42 53 l16 26 -47 -7 c-27 -5 -51 -6 -55 -4 -3 2 -8 -2 -11 -8 -4 -10 -8 -9
-18 2 -8 8 -13 13 -12 11z"/>
<path d="M5122 2506 c-24 -13 -20 -28 6 -19 10 4 13 2 8 -5 -6 -10 6 -17 17
-10 1 1 12 -4 25 -11 30 -16 28 0 -5 31 -25 23 -31 25 -51 14z"/>
<path d="M3205 2500 c-3 -5 -1 -10 4 -10 6 0 11 5 11 10 0 6 -2 10 -4 10 -3 0
-8 -4 -11 -10z"/>
<path d="M4610 2480 c0 -5 5 -10 11 -10 5 0 7 5 4 10 -3 6 -8 10 -11 10 -2 0
-4 -4 -4 -10z"/>
<path d="M5000 2483 c0 -6 8 -17 18 -24 16 -13 16 -13 2 6 -8 11 -16 22 -17
24 -2 2 -3 0 -3 -6z"/>
<path d="M3063 2463 c-3 -10 -8 -22 -11 -27 -3 -5 0 -6 5 -3 11 7 25 47 17 47
-3 0 -7 -8 -11 -17z"/>
<path d="M3083 2455 c-3 -9 -3 -18 -1 -21 3 -3 8 4 11 16 6 23 -1 27 -10 5z"/>
<path d="M3685 2459 c-10 -16 24 -99 41 -99 17 0 17 -5 3 -32 -8 -16 -8 -19 2
-16 21 7 36 40 22 45 -18 7 -16 33 2 33 8 0 15 6 15 14 0 19 -46 47 -65 40
-11 -5 -14 -2 -9 10 7 18 -1 22 -11 5z m55 -49 c0 -5 -4 -10 -10 -10 -5 0 -10
5 -10 10 0 6 5 10 10 10 6 0 10 -4 10 -10z"/>
<path d="M5220 2441 c0 -6 5 -13 12 -17 6 -4 8 -3 4 4 -3 5 0 13 6 15 8 3 6 6
-4 6 -10 1 -18 -3 -18 -8z"/>
<path d="M3115 2420 c-3 -5 -2 -10 4 -10 5 0 13 5 16 10 3 6 2 10 -4 10 -5 0
-13 -4 -16 -10z"/>
<path d="M3190 2398 c-30 -46 -33 -51 -22 -44 17 10 55 66 45 66 -4 0 -15 -10
-23 -22z"/>
<path d="M5275 2411 c-3 -5 0 -13 6 -17 8 -4 9 -3 5 4 -9 16 7 15 22 0 8 -8
12 -8 12 -1 0 6 -7 14 -16 17 -20 8 -22 8 -29 -3z"/>
<path d="M3035 2390 c3 -5 8 -10 11 -10 2 0 4 5 4 10 0 6 -5 10 -11 10 -5 0
-7 -4 -4 -10z"/>
<path d="M3078 2378 c-29 -36 -22 -53 11 -26 15 13 26 29 23 36 -6 17 -14 15
-34 -10z"/>
<path d="M3507 2383 c3 -7 6 -13 8 -13 2 0 5 6 8 13 3 8 -1 14 -8 14 -7 0 -11
-6 -8 -14z"/>
<path d="M5010 2380 c0 -5 23 -33 50 -62 29 -31 50 -46 50 -37 0 8 -7 24 -15
35 -8 10 -15 27 -15 37 0 9 -1 17 -3 17 -1 0 -17 4 -35 9 -18 6 -32 6 -32 1z"/>
<path d="M2986 2363 c-6 -14 -5 -15 5 -6 7 7 10 15 7 18 -3 3 -9 -2 -12 -12z"/>
<path d="M3461 2354 c-12 -15 -21 -32 -21 -40 0 -7 -3 -21 -6 -31 -3 -10 3 -6
13 10 10 15 23 25 30 23 6 -3 14 0 17 7 3 7 3 -6 -1 -28 -6 -39 -19 -58 -35
-49 -4 3 -16 -10 -27 -28 -11 -18 -24 -38 -30 -45 -7 -8 -6 -15 3 -22 11 -9
15 -7 19 10 3 11 10 18 16 15 13 -8 -6 -52 -32 -79 -13 -13 -16 -22 -9 -29 6
-6 8 -25 5 -42 -4 -21 5 -10 26 34 18 36 41 82 51 102 11 20 20 44 20 52 0 9
4 16 10 16 5 0 12 11 16 25 3 14 11 25 16 25 6 0 7 -8 3 -17 -4 -10 -10 -27
-13 -38 -2 -11 -9 -26 -15 -33 -21 -26 4 -24 36 4 19 16 62 46 96 66 33 20 61
42 61 47 0 6 -12 -1 -26 -14 -15 -14 -39 -25 -54 -25 -36 0 -102 28 -95 40 3
5 -3 13 -12 19 -10 5 -17 12 -15 15 6 15 0 19 -9 6 -8 -12 -9 -10 -4 8 9 30
-9 28 -34 -4z"/>
<path d="M5498 2373 c7 -3 16 -2 19 1 4 3 -2 6 -13 5 -11 0 -14 -3 -6 -6z"/>
<path d="M4635 2360 c3 -5 8 -10 11 -10 2 0 4 5 4 10 0 6 -5 10 -11 10 -5 0
-7 -4 -4 -10z"/>
<path d="M5535 2340 c3 -5 8 -10 11 -10 2 0 4 5 4 10 0 6 -5 10 -11 10 -5 0
-7 -4 -4 -10z"/>
<path d="M2970 2329 c0 -5 5 -7 10 -4 6 3 10 8 10 11 0 2 -4 4 -10 4 -5 0 -10
-5 -10 -11z"/>
<path d="M3019 2323 c-13 -16 -12 -17 4 -4 16 13 21 21 13 21 -2 0 -10 -8 -17
-17z"/>
<path d="M4655 2310 c-15 -17 -16 -20 -3 -20 9 0 18 9 21 20 3 11 4 20 3 20
-2 0 -11 -9 -21 -20z"/>
<path d="M6120 2326 c0 -2 7 -9 15 -16 12 -10 15 -10 15 4 0 9 -7 16 -15 16
-8 0 -15 -2 -15 -4z"/>
<path d="M3076 2303 c-6 -14 -5 -15 5 -6 7 7 10 15 7 18 -3 3 -9 -2 -12 -12z"/>
<path d="M5457 2291 c17 -14 19 -21 10 -31 -9 -10 -9 -12 3 -8 24 7 18 40 -10
49 l-25 9 22 -19z"/>
<path d="M2975 2279 c-12 -19 2 -21 32 -5 l28 15 -27 1 c-15 0 -30 -5 -33 -11z"/>
<path d="M5325 2280 c-3 -5 -1 -10 4 -10 6 0 11 5 11 10 0 6 -2 10 -4 10 -3 0
-8 -4 -11 -10z"/>
<path d="M3390 2263 c0 -13 5 -23 10 -23 13 0 13 11 0 30 -8 12 -10 11 -10 -7z"/>
<path d="M4790 2272 c0 -6 11 -24 25 -39 16 -18 24 -23 25 -13 0 8 -12 26 -25
39 -14 13 -25 18 -25 13z"/>
<path d="M5196 2262 c-3 -3 -6 -17 -6 -31 1 -28 36 -78 47 -67 4 4 1 11 -7 16
-14 9 -7 14 13 11 14 -2 6 14 -18 38 -14 13 -23 26 -20 29 3 3 16 -5 30 -18
21 -19 25 -21 25 -7 0 9 -5 17 -11 17 -5 0 -8 3 -6 8 6 8 -39 13 -47 4z"/>
<path d="M4710 2256 c0 -2 8 -10 18 -17 15 -13 16 -12 3 4 -13 16 -21 21 -21
13z"/>
<path d="M5340 2251 c0 -5 5 -13 10 -16 6 -3 10 -2 10 4 0 5 -4 13 -10 16 -5
3 -10 2 -10 -4z"/>
<path d="M5150 2230 c0 -5 5 -10 11 -10 5 0 7 5 4 10 -3 6 -8 10 -11 10 -2 0
-4 -4 -4 -10z"/>
<path d="M5273 2217 c4 -10 7 -22 7 -27 0 -4 7 -11 16 -14 13 -5 14 -4 6 7 -7
8 -10 16 -7 19 3 3 -2 11 -12 19 -15 12 -16 12 -10 -4z"/>
<path d="M3757 2143 c-9 -25 -16 -48 -14 -50 2 -2 12 17 22 42 9 26 15 48 13
50 -2 2 -12 -17 -21 -42z"/>
<path d="M3820 2167 c-10 -16 -14 -17 -21 -6 -5 8 -9 10 -10 4 -3 -35 -12 -60
-29 -82 -21 -27 -26 -53 -11 -53 6 0 16 12 23 27 7 15 18 27 23 26 16 -3 55
39 48 51 -3 6 -2 8 2 3 8 -7 55 30 55 44 0 17 -68 4 -80 -14z"/>
<path d="M4890 2183 c0 -5 5 -15 10 -23 8 -12 10 -11 10 8 0 12 -4 22 -10 22
-5 0 -10 -3 -10 -7z"/>
<path d="M5080 2181 c0 -5 5 -13 10 -16 6 -3 10 -2 10 4 0 5 -4 13 -10 16 -5
3 -10 2 -10 -4z"/>
<path d="M3976 2135 c-11 -75 -13 -79 -31 -61 -9 8 -15 19 -14 23 2 15 -13 53
-22 53 -4 0 -13 -16 -20 -35 -9 -25 -16 -32 -25 -24 -15 12 -96 -82 -98 -114
-1 -12 -7 -21 -12 -20 -7 1 -9 -8 -6 -22 5 -29 14 -31 32 -10 7 8 17 15 23 15
6 0 -1 -13 -16 -28 -32 -33 -35 -62 -8 -62 14 0 24 13 37 52 14 44 18 49 26
33 7 -18 8 -17 4 3 -5 26 30 102 46 102 6 0 8 -14 6 -31 l-5 -31 18 23 c10 13
21 21 25 17 3 -4 -5 -21 -20 -38 -14 -17 -26 -37 -26 -43 0 -7 8 0 18 16 16
26 32 36 32 18 0 -4 -9 -20 -21 -35 -12 -15 -19 -37 -17 -53 l3 -28 23 36 c25
41 30 117 10 138 -11 10 -10 12 2 9 8 -2 21 -11 28 -21 7 -9 18 -15 23 -12 11
7 12 55 1 55 -11 0 -13 40 -3 59 4 9 5 27 1 41 -6 21 -8 17 -14 -25z m-145
-168 c-10 -9 -11 -8 -5 6 3 10 9 15 12 12 3 -3 0 -11 -7 -18z"/>
<path d="M4935 2170 c-3 -5 -1 -10 4 -10 6 0 11 5 11 10 0 6 -2 10 -4 10 -3 0
-8 -4 -11 -10z"/>
<path d="M5520 2125 c58 -57 70 -64 70 -40 0 16 -94 95 -113 95 -7 0 13 -25
43 -55z"/>
<path d="M5140 2159 c0 -5 -4 -8 -10 -4 -10 6 -34 -70 -26 -88 2 -7 5 -3 5 8
1 11 6 27 11 35 9 13 11 13 20 0 7 -11 10 -6 10 23 0 20 -2 37 -5 37 -3 0 -5
-5 -5 -11z"/>
<path d="M5410 2160 c0 -5 9 -14 20 -20 19 -10 20 -10 8 9 -13 22 -28 28 -28
11z"/>
<path d="M3496 2143 c-6 -14 -5 -15 5 -6 7 7 10 15 7 18 -3 3 -9 -2 -12 -12z"/>
<path d="M4967 2153 c-10 -9 -9 -23 1 -23 5 0 9 7 9 15 0 17 -1 18 -10 8z"/>
<path d="M5237 2152 c-9 -2 -15 -8 -12 -13 8 -12 45 -12 45 0 0 13 -12 18 -33
13z"/>
<path d="M4890 2130 c0 -5 5 -10 11 -10 5 0 7 5 4 10 -3 6 -8 10 -11 10 -2 0
-4 -4 -4 -10z"/>
<path d="M5475 2114 c14 -27 125 -131 125 -117 0 11 -121 143 -131 143 -4 0
-2 -12 6 -26z"/>
<path d="M5315 2120 c3 -5 8 -10 11 -10 2 0 4 5 4 10 0 6 -5 10 -11 10 -5 0
-7 -4 -4 -10z"/>
<path d="M5410 2126 c0 -3 14 -11 30 -20 17 -8 30 -11 30 -7 0 4 -11 13 -25
19 -28 13 -35 14 -35 8z"/>
<path d="M3675 2086 c-11 -19 -22 -33 -26 -30 -8 5 -43 -45 -36 -52 7 -8 107
98 101 108 -10 15 -21 8 -39 -26z"/>
<path d="M5375 2099 c-4 -6 2 -13 14 -16 16 -4 19 -9 11 -18 -7 -9 -4 -25 10
-56 11 -24 20 -51 20 -60 0 -22 63 -115 68 -101 5 16 -35 138 -55 168 -8 13
-11 24 -7 24 16 0 54 -69 65 -117 6 -27 18 -69 25 -95 8 -26 14 -55 14 -65 0
-16 2 -15 14 3 11 15 12 30 6 60 -12 50 -12 64 -1 64 5 0 15 -31 22 -70 7 -38
15 -70 19 -70 11 0 0 122 -16 181 -9 30 -24 66 -34 80 l-19 24 8 -35 c5 -19
12 -48 16 -65 6 -25 3 -23 -24 19 -34 52 -129 156 -142 156 -4 0 -11 -5 -14
-11z m172 -281 c-3 -8 -6 -5 -6 6 -1 11 2 17 5 13 3 -3 4 -12 1 -19z"/>
<path d="M5162 2075 c0 -16 2 -22 5 -12 2 9 2 23 0 30 -3 6 -5 -1 -5 -18z"/>
<path d="M5200 2092 c0 -5 6 -14 13 -21 10 -11 10 -13 0 -7 -9 5 -13 0 -13
-13 0 -14 5 -19 15 -15 8 4 15 16 15 29 0 13 -7 25 -15 29 -8 3 -15 2 -15 -2z"/>
<path d="M4890 2055 c-6 -8 -10 -19 -8 -26 2 -6 9 0 16 15 13 29 10 33 -8 11z"/>
<path d="M5475 2046 c17 -25 52 -46 39 -23 -13 22 -37 47 -46 47 -5 0 -1 -11
7 -24z"/>
<path d="M3701 1985 c-12 -37 -19 -70 -15 -76 3 -5 0 -16 -6 -24 -10 -12 -9
-15 4 -15 9 0 16 5 16 11 0 5 3 8 8 6 4 -3 8 5 9 16 7 73 11 147 8 147 -2 0
-13 -29 -24 -65z"/>
<path d="M4041 2034 c0 -11 3 -14 6 -6 3 7 2 16 -1 19 -3 4 -6 -2 -5 -13z"/>
<path d="M3667 2023 c-4 -3 -7 -11 -7 -17 0 -6 5 -5 12 2 6 6 9 14 7 17 -3 3
-9 2 -12 -2z"/>
<path d="M5072 2026 c4 -5 2 -18 -3 -29 -8 -15 -8 -22 2 -28 11 -7 10 -9 -3
-9 -10 0 -18 -7 -18 -16 0 -8 4 -13 9 -10 5 4 7 -3 4 -14 -4 -15 -9 -18 -18
-10 -10 8 -15 8 -20 -1 -6 -8 -10 -7 -17 5 -12 22 -25 20 -38 -4 -9 -16 -6
-24 12 -43 13 -13 37 -40 54 -60 27 -32 32 -35 36 -19 3 11 -1 37 -8 58 -17
47 -17 47 -4 39 6 -4 18 -25 27 -48 14 -34 18 -37 24 -21 11 28 10 36 -2 28
-8 -5 -8 -1 0 14 8 14 8 23 1 27 -8 5 -7 12 1 22 10 11 9 20 -4 43 -10 15 -15
35 -12 42 3 8 -2 21 -12 29 -10 7 -15 10 -11 5z"/>
<path d="M5212 2014 c-12 -8 -26 -13 -30 -10 -5 3 -3 -18 5 -47 7 -28 13 -59
13 -69 0 -20 15 -24 25 -7 7 10 18 149 12 149 -1 0 -13 -7 -25 -16z"/>
<path d="M1590 1991 c0 -5 5 -13 10 -16 6 -3 10 -2 10 4 0 5 -4 13 -10 16 -5
3 -10 2 -10 -4z"/>
<path d="M3544 1963 c-11 -15 -23 -36 -27 -46 -4 -10 -11 -16 -16 -13 -12 8
-35 -22 -59 -81 -30 -72 -28 -109 4 -66 7 10 14 16 17 13 8 -9 -5 -80 -14 -74
-5 3 -9 -4 -9 -15 0 -11 4 -22 9 -25 10 -7 31 56 35 110 2 23 7 47 12 55 18
29 53 109 47 109 -3 0 2 9 11 19 10 11 16 25 14 31 -2 6 -13 -1 -24 -17z"/>
<path d="M4030 1965 c-7 -9 -11 -18 -8 -20 3 -3 11 1 18 10 7 9 11 18 8 20 -3
3 -11 -1 -18 -10z"/>
<path d="M3606 1954 c-22 -21 -20 -27 4 -14 11 6 20 15 20 20 0 14 -6 12 -24
-6z"/>
<path d="M5171 1932 c0 -13 -5 -20 -11 -17 -5 3 -10 2 -10 -4 0 -5 5 -13 10
-16 6 -4 8 -10 5 -15 -3 -4 1 -20 9 -34 11 -23 14 -24 18 -9 2 10 -1 41 -8 68
-6 28 -12 40 -13 27z"/>
<path d="M4896 1931 c-4 -5 -3 -17 1 -27 6 -16 7 -16 20 2 7 10 13 21 13 26 0
11 -27 10 -34 -1z"/>
<path d="M5380 1938 c0 -2 11 -26 23 -53 22 -45 24 -47 29 -23 4 20 -2 33 -24
53 -15 15 -28 25 -28 23z"/>
<path d="M3546 1895 c-9 -13 -16 -30 -16 -38 0 -7 -5 -18 -12 -25 -6 -6 -8
-15 -3 -19 4 -5 10 -2 12 5 3 7 12 19 21 28 13 14 28 74 18 74 -2 0 -11 -11
-20 -25z"/>
<path d="M3638 1905 c-3 -6 -8 -23 -12 -40 l-6 -30 16 28 c8 16 14 33 11 40
-2 6 -6 7 -9 2z"/>
<path d="M4058 1887 c-3 -19 -2 -25 4 -19 6 6 8 18 6 28 -3 14 -5 12 -10 -9z"/>
<path d="M4870 1868 c0 -20 4 -39 9 -42 16 -10 18 18 5 49 l-13 30 -1 -37z"/>
<path d="M5132 1876 c1 -15 6 -26 11 -26 4 0 6 -4 3 -9 -3 -4 1 -17 9 -27 14
-18 14 -18 15 3 0 12 -4 25 -10 28 -5 3 -10 15 -10 25 0 10 -4 22 -10 25 -6 4
-9 -5 -8 -19z"/>
<path d="M3566 1839 c-30 -43 -30 -57 2 -40 16 8 39 68 30 77 -2 1 -16 -16
-32 -37z"/>
<path d="M4106 1864 c-3 -9 -6 -28 -5 -42 l1 -27 13 30 c8 17 14 36 15 43 0
17 -17 15 -24 -4z"/>
<path d="M3980 1860 c-12 -7 -12 -12 -3 -21 10 -10 14 -9 19 5 8 22 2 27 -16
16z"/>
<path d="M4946 1862 c-5 -9 -4 -17 8 -67 17 -70 28 -86 50 -79 28 9 37 25 24
41 -6 8 -8 16 -5 20 7 7 -52 93 -64 93 -4 0 -10 -4 -13 -8z m64 -113 c0 -6 -4
-7 -10 -4 -5 3 -10 11 -10 16 0 6 5 7 10 4 6 -3 10 -11 10 -16z"/>
<path d="M4171 1844 c0 -11 3 -14 6 -6 3 7 2 16 -1 19 -3 4 -6 -2 -5 -13z"/>
<path d="M5451 1850 c0 -8 4 -33 10 -55 11 -37 12 -38 20 -17 9 23 3 52 -11
52 -5 0 -11 8 -13 18 -3 12 -5 13 -6 2z"/>
<path d="M3730 1833 c0 -4 5 -15 10 -23 8 -13 10 -13 10 2 0 9 -4 20 -10 23
-5 3 -10 3 -10 -2z"/>
<path d="M3770 1830 c0 -5 5 -10 11 -10 5 0 7 5 4 10 -3 6 -8 10 -11 10 -2 0
-4 -4 -4 -10z"/>
<path d="M3810 1809 c0 -11 5 -17 10 -14 6 3 10 13 10 21 0 8 -4 14 -10 14 -5
0 -10 -9 -10 -21z"/>
<path d="M4906 1809 c-21 -20 -15 -54 9 -46 9 4 12 1 9 -7 -5 -12 22 -43 30
-35 2 2 -4 27 -13 55 -16 50 -17 51 -35 33z"/>
<path d="M3940 1796 c0 -8 4 -17 9 -20 5 -4 7 3 4 14 -6 23 -13 26 -13 6z"/>
<path d="M4053 1790 c-15 -23 -7 -51 13 -43 14 5 20 63 6 63 -4 0 -13 -9 -19
-20z"/>
<path d="M4700 1794 c0 -16 -2 -17 -10 -4 -6 9 -10 10 -10 3 0 -19 20 -26 26
-8 4 9 4 19 0 22 -3 4 -6 -2 -6 -13z"/>
<path d="M5130 1779 c0 -24 -4 -30 -15 -25 -9 3 -15 0 -15 -9 0 -8 4 -15 9
-15 16 0 50 51 44 66 -9 25 -23 15 -23 -17z"/>
<path d="M3764 1792 c3 -5 1 -12 -5 -14 -18 -6 12 -48 33 -48 12 0 18 8 18 23
0 16 -3 18 -9 8 -11 -17 -32 -6 -25 13 3 8 0 17 -7 22 -7 4 -10 3 -5 -4z"/>
<path d="M3835 1767 c-8 -42 -2 -59 13 -30 5 10 6 29 2 43 -7 23 -8 22 -15
-13z"/>
<path d="M4115 1789 c-4 -6 -5 -12 -2 -15 2 -3 7 2 10 11 7 17 1 20 -8 4z"/>
<path d="M4198 1782 c-3 -9 -1 -26 3 -37 6 -15 8 -11 8 18 1 40 -4 48 -11 19z"/>
<path d="M3507 1783 c-4 -3 -7 -11 -7 -17 0 -6 5 -5 12 2 6 6 9 14 7 17 -3 3
-9 2 -12 -2z"/>
<path d="M4310 1773 c0 -13 5 -23 10 -23 13 0 13 11 0 30 -8 12 -10 11 -10 -7z"/>
<path d="M3530 1760 c-6 -12 -14 -33 -16 -48 -6 -33 -13 -44 -25 -37 -10 7
-11 4 -13 -37 -3 -44 19 -15 49 63 26 68 29 104 5 59z"/>
<path d="M4143 1759 c-3 -11 -11 -18 -18 -15 -8 3 -16 -2 -19 -10 -9 -24 -7
-31 5 -14 8 11 9 3 5 -32 -3 -27 -2 -48 3 -48 5 0 12 -8 14 -17 3 -10 5 0 6
22 1 22 8 49 16 59 17 23 20 76 4 76 -6 0 -13 -9 -16 -21z"/>
<path d="M3565 1759 c-4 -6 -5 -12 -2 -15 2 -3 7 2 10 11 7 17 1 20 -8 4z"/>
<path d="M3917 1763 c-10 -10 -8 -33 2 -33 6 0 9 9 8 20 -1 23 -1 22 -10 13z"/>
<path d="M4276 1739 c-8 -40 -8 -54 0 -46 7 7 17 77 11 77 -2 0 -7 -14 -11
-31z"/>
<path d="M4780 1754 c0 -8 5 -12 10 -9 6 3 10 10 10 16 0 5 -4 9 -10 9 -5 0
-10 -7 -10 -16z"/>
<path d="M5487 1751 c-6 -26 8 -49 17 -26 9 24 8 45 -3 45 -5 0 -11 -9 -14
-19z"/>
<path d="M5558 1744 c-3 -10 -2 -28 2 -39 7 -19 8 -19 15 -2 4 10 3 28 -2 40
-9 20 -10 20 -15 1z"/>
<path d="M3882 1727 c-13 -15 -12 -57 1 -57 4 0 7 6 6 13 -1 6 1 20 6 30 10
23 1 32 -13 14z"/>
<path d="M5077 1733 c-11 -10 -8 -51 3 -58 6 -4 10 8 10 29 0 37 -2 41 -13 29z"/>
<path d="M3425 1720 c-3 -5 -1 -10 4 -10 6 0 11 5 11 10 0 6 -2 10 -4 10 -3 0
-8 -4 -11 -10z"/>
<path d="M4805 1720 c-3 -5 -1 -10 4 -10 6 0 11 5 11 10 0 6 -2 10 -4 10 -3 0
-8 -4 -11 -10z"/>
<path d="M3907 1691 c-3 -11 1 -22 8 -25 18 -6 24 2 18 25 -7 24 -19 24 -26 0z"/>
<path d="M4220 1683 c0 -22 2 -25 10 -13 13 20 13 40 0 40 -5 0 -10 -12 -10
-27z"/>
<path d="M4317 1675 c-4 -8 -2 -17 3 -20 6 -4 10 3 10 14 0 25 -6 27 -13 6z"/>
<path d="M4400 1673 c0 -10 -3 -29 -5 -43 -5 -22 -3 -21 9 5 18 36 20 55 6 55
-5 0 -10 -8 -10 -17z"/>
<path d="M4780 1680 c0 -5 5 -10 11 -10 5 0 7 5 4 10 -3 6 -8 10 -11 10 -2 0
-4 -4 -4 -10z"/>
<path d="M5476 1683 c-12 -12 -36 -74 -36 -92 1 -9 12 8 26 38 23 50 27 71 10
54z"/>
<path d="M5520 1663 c0 -12 5 -25 10 -28 13 -8 13 15 0 35 -8 12 -10 11 -10
-7z"/>
<path d="M5566 1648 c-9 -36 -7 -90 4 -83 8 5 13 105 5 105 -2 0 -5 -10 -9
-22z"/>
<path d="M4338 1632 c-10 -11 -13 -31 -10 -61 3 -28 7 -39 13 -30 4 7 11 10
15 6 4 -4 2 -13 -4 -19 -7 -7 -12 -23 -12 -35 0 -24 0 -24 25 -6 29 21 31 44
9 78 -9 14 -14 36 -12 50 7 32 -5 40 -24 17z"/>
<path d="M5480 1631 c0 -11 5 -23 10 -26 8 -5 7 -11 -1 -21 -6 -8 -8 -14 -4
-14 5 0 2 -8 -6 -17 -24 -29 -42 -70 -37 -84 2 -7 21 22 42 65 20 43 35 84 32
90 -3 7 -5 7 -5 -1 -1 -7 -6 -13 -12 -13 -6 0 -8 9 -4 20 4 11 2 20 -4 20 -6
0 -11 -9 -11 -19z"/>
<path d="M4416 1609 c-9 -48 -8 -95 3 -83 11 10 18 100 9 109 -3 3 -8 -9 -12
-26z"/>
<path d="M4161 1614 c0 -11 3 -14 6 -6 3 7 2 16 -1 19 -3 4 -6 -2 -5 -13z"/>
<path d="M4290 1605 c0 -8 4 -15 10 -15 5 0 7 7 4 15 -4 8 -8 15 -10 15 -2 0
-4 -7 -4 -15z"/>
<path d="M4501 1560 c0 -14 4 -34 9 -45 7 -17 9 -16 9 10 0 17 -4 37 -9 45 -8
12 -10 10 -9 -10z"/>
<path d="M4461 1513 c-6 -21 -11 -50 -11 -64 0 -28 24 -46 36 -27 4 7 3 8 -4
4 -7 -4 -12 -3 -12 3 0 5 5 13 10 16 13 8 13 92 1 100 -6 3 -15 -11 -20 -32z"/>
<path d="M5483 1493 c-25 -58 -34 -83 -29 -83 7 0 42 64 54 98 17 49 -2 38
-25 -15z"/>
<path d="M5536 1495 c-4 -15 -5 -30 -1 -33 3 -3 5 2 5 11 0 8 6 17 13 20 9 3
9 8 1 16 -9 10 -13 6 -18 -14z"/>
<path d="M4411 1485 c-1 -11 -4 -31 -6 -45 l-6 -25 11 25 c6 13 9 33 7 45 -4
19 -4 19 -6 0z"/>
<path d="M5400 1422 c-15 -47 -8 -64 17 -39 13 13 14 22 6 49 l-10 33 -13 -43z"/>
<path d="M5450 1375 c-7 -9 -8 -15 -2 -15 5 0 12 7 16 15 3 8 4 15 2 15 -2 0
-9 -7 -16 -15z"/>
<path d="M5761 1374 c0 -11 3 -14 6 -6 3 7 2 16 -1 19 -3 4 -6 -2 -5 -13z"/>
<path d="M4417 1367 c-4 -10 -7 -28 -7 -40 1 -20 2 -20 11 -4 6 10 9 28 7 40
-3 20 -4 20 -11 4z"/>
<path d="M5403 1355 c-8 -22 6 -33 17 -15 13 20 12 30 0 30 -6 0 -13 -7 -17
-15z"/>
<path d="M4467 1271 c-4 -17 -3 -21 5 -13 5 5 8 16 6 23 -3 8 -7 3 -11 -10z"/>
<path d="M5339 1226 c-17 -16 -34 -23 -47 -19 -11 2 -23 -1 -27 -7 -5 -9 -1
-10 15 -5 19 6 21 4 15 -15 -10 -30 5 -20 45 30 36 46 36 50 -1 16z"/>
</g>
</svg>
